<svg xmlns="http://www.w3.org/2000/svg" viewBox="0 0 32 26">
  <defs>
    <style>
      svg{
        fill:#ffffff;
        transition: all 0.5s;
      }

      svg:hover {
        fill:#d11432;
        cursor:pointer;
      }
    </style>
  </defs>
  <path d="M29.4 0H2.6C1.2 0 0 1.2 0 2.6 0 4 1.2 5.2 2.6 5.2h26.8C30.8 5.2 32 4
    32 2.6 32 1.2 30.8 0 29.4 0M29.4 10.6H2.6c-1.4 0-2.6 1.2-2.6 2.6 0 1.4 1.2 2.6
    2.6 2.6h26.8c1.4 0 2.6-1.2 2.6-2.6 0-1.4-1.2-2.6-2.6-2.6M29.4 20.8H2.6C1.2 20.8
    0 22 0 23.4 0 24.8 1.2 26 2.6 26h26.8c1.4 0 2.6-1.2 2.6-2.6 0-1.4-1.2-2.6-2.6-2.6"/>
</svg>
