<svg xmlns="http://www.w3.org/2000/svg" viewBox="0 0 168.3 156.7">
  <path d="M167.8 153H.6c-.3 0-.6.3-.6.6v2.5c0 .3.3.6.6.6h167.2c.3 0 .6-.3.6-.6v-2.5c-.1-.3-.3-.6-.6-.6zM48.4 151h72.4c.3 0 .6-.3.6-.6V.6c0-.3-.3-.6-.6-.6H48.4c-.3 0-.6.3-.6.6v149.9c0 .2.3.5.6.5zM98.3 12.8c0-.2.1-.3.3-.3h9.9c.2 0 .3.1.3.3v9.9c0 .2-.1.3-.3.3h-9.9c-.2 0-.3-.1-.3-.3v-9.9zm0 20c0-.2.1-.3.3-.3h9.9c.2 0 .3.1.3.3v9.9c0 .2-.1.3-.3.3h-9.9c-.2 0-.3-.1-.3-.3v-9.9zm0 20c0-.2.1-.3.3-.3h9.9c.2 0 .3.1.3.3v9.9c0 .2-.1.3-.3.3h-9.9c-.2 0-.3-.1-.3-.3v-9.9zm0 20c0-.2.1-.3.3-.3h9.9c.2 0 .3.1.3.3v9.9c0 .2-.1.3-.3.3h-9.9c-.2 0-.3-.1-.3-.3v-9.9zm0 20c0-.2.1-.3.3-.3h9.9c.2 0 .3.1.3.3v9.9c0 .2-.1.3-.3.3h-9.9c-.2 0-.3-.1-.3-.3v-9.9zm0 20c0-.2.1-.3.3-.3h9.9c.2 0 .3.1.3.3v9.9c0 .2-.1.3-.3.3h-9.9c-.2 0-.3-.1-.3-.3v-9.9zM93.9 149h-9.5v-16.5h9.5V149zM78.3 12.8c0-.2.1-.3.3-.3h9.9c.2 0 .3.1.3.3v9.9c0 .2-.1.3-.3.3h-9.9c-.2 0-.3-.1-.3-.3v-9.9zm0 20c0-.2.1-.3.3-.3h9.9c.2 0 .3.1.3.3v9.9c0 .2-.1.3-.3.3h-9.9c-.2 0-.3-.1-.3-.3v-9.9zm0 20c0-.2.1-.3.3-.3h9.9c.2 0 .3.1.3.3v9.9c0 .2-.1.3-.3.3h-9.9c-.2 0-.3-.1-.3-.3v-9.9zm0 20c0-.2.1-.3.3-.3h9.9c.2 0 .3.1.3.3v9.9c0 .2-.1.3-.3.3h-9.9c-.2 0-.3-.1-.3-.3v-9.9zm0 20c0-.2.1-.3.3-.3h9.9c.2 0 .3.1.3.3v9.9c0 .2-.1.3-.3.3h-9.9c-.2 0-.3-.1-.3-.3v-9.9zm0 20c0-.2.1-.3.3-.3h9.9c.2 0 .3.1.3.3v9.9c0 .2-.1.3-.3.3h-9.9c-.2 0-.3-.1-.3-.3v-9.9zm-4.9 19.7h9.5V149h-9.5v-16.5zM58.3 12.8c0-.2.1-.3.3-.3h9.9c.2 0 .3.1.3.3v9.9c0 .2-.1.3-.3.3h-9.9c-.2 0-.3-.1-.3-.3v-9.9zm0 20c0-.2.1-.3.3-.3h9.9c.2 0 .3.1.3.3v9.9c0 .2-.1.3-.3.3h-9.9c-.2 0-.3-.1-.3-.3v-9.9zm0 20c0-.2.1-.3.3-.3h9.9c.2 0 .3.1.3.3v9.9c0 .2-.1.3-.3.3h-9.9c-.2 0-.3-.1-.3-.3v-9.9zm0 20c0-.2.1-.3.3-.3h9.9c.2 0 .3.1.3.3v9.9c0 .2-.1.3-.3.3h-9.9c-.2 0-.3-.1-.3-.3v-9.9zm0 20c0-.2.1-.3.3-.3h9.9c.2 0 .3.1.3.3v9.9c0 .2-.1.3-.3.3h-9.9c-.2 0-.3-.1-.3-.3v-9.9zm0 20c0-.2.1-.3.3-.3h9.9c.2 0 .3.1.3.3v9.9c0 .2-.1.3-.3.3h-9.9c-.2 0-.3-.1-.3-.3v-9.9zM5.4 151h35.9c.3 0 .6-.3.6-.6V23.6c0-.3-.3-.6-.6-.6H5.4c-.3 0-.6.3-.6.6v126.9c0 .2.3.5.6.5zM18.3 36.7h10V54h-10V36.7zm0 30h10V84h-10V66.7zm0 30h10V114h-10V96.7zM126.9 151h36.9c.3 0 .6-.3.6-.6V71.1c0-.3-.3-.6-.6-.6l-36.9-12c-.3 0-.6.3-.6.6v91.4c0 .2.3.5.6.5zM137 81h15v9.7h-15V81zm0 20h15v9.7h-15V101zm0 20h15v9.7h-15V121z"/>
</svg>
