<svg xmlns="http://www.w3.org/2000/svg" viewBox="0 0 65.7 64.4"><path d="M56.7 24.8L55 20.9s3.9-8.7 3.5-9l-5.1-5c-.4-.3-9.1 3.6-9.1 3.6l-4-1.6S36.8.1 36.3.1h-7.2C28.6.1 25.3 9 25.3 9l-4 1.6s-8.9-3.8-9.2-3.4L7 12c-.4.3 3.7 8.9 3.7 8.9L9 24.8s-9 3.5-9 3.9v7.1c0 .5 9 3.7 9 3.7l1.7 3.9s-3.9 8.7-3.5 9l5.1 5c.3.3 9.1-3.6 9.1-3.6l4 1.6s3.5 8.8 4 8.8h7.2c.5 0 3.8-8.9 3.8-8.9l4-1.6s8.9 3.8 9.2 3.5l5.1-5c.4-.3-3.7-8.9-3.7-8.9l1.7-3.9s9-3.5 9-4v-7.1c0-.3-9-3.5-9-3.5m-6.3 7.8c0 9.6-8 17.4-17.8 17.4s-17.8-7.8-17.8-17.4c0-9.6 8-17.4 17.8-17.4 9.8-.1 17.8 7.7 17.8 17.4"/></svg>