<svg id="Layer_1" xmlns="http://www.w3.org/2000/svg" viewBox="0 0 81.2 86.6"><style>.st0{font-family:&apos;Arial-BoldMT&apos;;} .st1{font-size:21px;}</style><path d="M64.6 47.3l-1.7-3.9s3.9-8.7 3.5-9l-5.1-5c-.3-.3-9.1 3.6-9.1 3.6l-4-1.6s-3.6-8.8-4.1-8.8h-7.2c-.5 0-3.8 8.8-3.8 8.8L29 33s-8.9-3.8-9.3-3.4l-5.1 5c-.4.3 3.7 8.8 3.7 8.8l-1.7 3.9s-9.1 3.5-9.1 3.9v7c0 .5 9.1 3.7 9.1 3.7l1.7 3.9s-3.9 8.7-3.5 9l5.1 5c.3.3 9.1-3.6 9.1-3.6l4 1.6s3.6 8.8 4.1 8.8h7.2c.5 0 3.8-8.8 3.8-8.8l4-1.6s8.9 3.8 9.3 3.4l5.1-5c.4-.3-3.7-8.8-3.7-8.8l2.7-3.9s8.1-3.5 8.1-3.9v-7c0-.5-9-3.7-9-3.7m-6 8c0 9.6-8 17.4-17.8 17.4C31 72.8 23 64.9 23 55.3c0-9.6 8-17.4 17.8-17.4s17.8 7.8 17.8 17.4"/><text transform="translate(-.774 15.312)" class="st0 st1">&lt;HTML&gt;</text></svg>