<svg xmlns="http://www.w3.org/2000/svg" viewBox="0 0 49.6 38">
  <defs>
    <style>
      path{
        fill:#ffffff;
      }
    </style>
  </defs>
<path d="M19.7 22.8c0-6.7 6.7-12.1 15-12.1.8 0 1.6.1 2.4.2C34.8 4.6 27.5 0 19 0 8.5 0 0 6.9 0 15.3c0 4.5 2.4 8.6 6.3 11.4-.1.8-.5 2-1.7 3.4C2.5 32.5.3 33.7.7 34.2c.4.5 9.6.8 14.6-3.9 1.2.2 2.5.3 3.8.3 1.4 0 2.7-.1 4-.3-2.2-2-3.4-4.6-3.4-7.5z"/><path d="M47.5 38.4c-1.1 0-6.5-.2-10-3.2-.9.1-1.9.2-2.8.2-8.5 0-15.5-5.7-15.5-12.6 0-6.9 6.9-12.6 15.5-12.6s15.5 5.7 15.5 12.6c0 3.5-1.8 6.8-4.9 9.2.1.5.4 1.3 1.2 2.1.7.8 1.4 1.4 2 2 .9.8 1.5 1.3 1.1 1.9-.1.2-.3.4-2.1.4zm-9.7-4.2l.2.2c3.2 3 8.5 3.1 9.5 3.1h.9c-.2-.2-.4-.4-.6-.5-.6-.5-1.4-1.2-2.1-2.1-1-1.2-1.4-2.2-1.5-2.9v-.3l.2-.2c3-2.2 4.7-5.3 4.7-8.6 0-6.4-6.5-11.6-14.5-11.6s-14.5 5.2-14.5 11.6c0 6.4 6.5 11.6 14.5 11.6 1 0 1.9-.1 2.9-.2l.3-.1z"/></svg>
