<svg id="Layer_1" xmlns="http://www.w3.org/2000/svg" viewBox="0 0 61.5 44.9"><style>.st0{fill:#1D1D1B;}</style><path class="st0" d="M30.7 27.3c.1-1.2-2.8-3.9-2.8-3.9s-10.1-10.5-12.3-9c-2.2 1.5 7.6 12.3 7.6 12.3s3.5 3.9 4.7 3.5c1-.6 2.7-2.2 2.8-2.9zM33.4 29.9s-.9-1.3-1.4-1.8c-.5-.5-1.2.2-1.2.2l-1.9 1.9c-.8.8.2 1.5.2 1.5s1.6 1.1 2 1.3c.4.2 1-.4 1-.4l1.3-1.3c.8-.6 0-1.4 0-1.4zM40.1 36.8c-1.4-.1-2-1.7-2.4-2.6-.4-.9-.5-2.2-2-2.9-1.5-.7-2.8 1.9-2.8 1.9-1.3 5.9 4.6 5 5.3 5 .8.1 3.4-1.3 1.9-1.4z"/><path d="M58.3 0H10.7C8.9 0 7.5 1.4 7.5 3.2v4.2H3.2C1.4 7.4 0 8.8 0 10.6v31.1c0 1.8 1.4 3.2 3.2 3.2h47.6c1.8 0 3.2-1.4 3.2-3.2v-4.2h4.3c1.8 0 3.2-1.4 3.2-3.2V3.2c0-1.8-1.4-3.2-3.2-3.2zm-8.9 39.9H5v-28h44.4v28zm7.5-7.4H54v-22c0-1.8-1.4-3.2-3.2-3.2H12.5V4.5h44.4v28z"/></svg>