<svg xmlns="http://www.w3.org/2000/svg" viewBox="0 0 59.7 59.8">
  <path d="M22.7 9.4V7.5h5.5v1.9c0 1 .9 1.9 1.9 1.9h.5c1 0 1.9-.8 1.9-1.9V7.5H38v1.9c0 1 .8 1.9 1.9 1.9h.5c1 0 1.9-.8 1.9-1.9V7.5h1.1l3.5 3.5v5.6h3.7V9.4l-5.8-5.7H42V1.9c0-1-.8-1.9-1.9-1.9h-.5c-1 0-1.9.8-1.9 1.9v1.9h-5.5V1.9c0-1-.8-1.9-1.9-1.9H30c-1 0-1.9.8-1.9 1.9v1.9h-5.5V1.9c0-1-.8-1.9-1.9-1.9h-.5c-1 0-1.9.8-1.9 1.9v1.9h-5.5V1.9c0-1-.8-1.9-1.9-1.9h-.5c-1 0-1.9.8-1.9 1.9v1.9H0v56h16.5l.9-3.7H3.7V7.5h5.1v1.9c0 1 .8 1.9 1.9 1.9h.5c1 0 1.9-.8 1.9-1.9V7.5h5.5v1.9c0 1 .8 1.9 1.9 1.9h.5c.9 0 1.7-.8 1.7-1.9"/>
  <path d="M58.6 28.4l-6-6c-1.5-1.5-3.8-1.5-5.2-.1L25.6 44.2l-.4.4-3.8 15.1 15.1-3.8 1.4-1.4 20.8-20.8c1.4-1.5 1.4-3.8-.1-5.3M26.7 46.1l8.2 8.2-7.7 1.9-2.4-2.5 1.9-7.6zm9.7 3.2l-4.7-4.7L47.4 29l4.7 4.7-15.7 15.6z"/>
</svg>
