<svg id="Layer_1" xmlns="http://www.w3.org/2000/svg" viewBox="0 0 225 196.1">
  <style>
    .st0{fill:#1D1D1B;}
  </style>
  <path class="st0" d="M178.7 133.9c-4 8.7-9.6 16.8-16.9 24-16.4 16.3-36.5 24.4-60.3 24.4-23.9 0-44.1-8.1-60.7-24.4C24.3 141.7 16 121.7 16 98.1c0-23.7 8.3-43.7 24.8-60 16.6-16.3 36.8-24.4 60.7-24.4 23.8 0 43.9 8.1 60.3 24.4 8.1 8 14.1 16.9 18.2 26.7l13.5-7.8c-4.9-10.3-11.6-19.9-20.6-28.5C153.2 9.5 129.3 0 101 0 72.8 0 48.9 9.5 29.4 28.5 9.8 47.5 0 70.7 0 98.1c0 27.3 9.8 50.4 29.4 69.4C49 186.5 72.8 196 101 196c28.3 0 52.2-9.5 71.9-28.5 8-7.8 14.3-16.3 19.1-25.5l-13.3-8.1z"/>
  <path class="st0" d="M225 55.5l-32.2 76.2H188l-34-76.2h8.1l28.2 62.9 27-62.9h7.7z"/>
</svg>
