<svg xmlns="http://www.w3.org/2000/svg" viewBox="0 0 16 16">
	<defs>
		<style>
			svg{
        fill:#000000;
        transition: all 0.5s;
      }

      svg:hover {
        transform:scale(0.7);
        cursor:pointer;
      }
		</style>
	</defs>
	<a href="https://plus.google.com/100980104816699075209"
      target="_blank">
	<polygon class="st0" points="16 3.5 13.8 3.5 13.8 5.7 12.7 5.7 12.7 3.5 10.5 3.5 10.5 2.4 12.7 2.4 12.7 0.2 13.8 0.2 13.8 2.4 16 2.4 "/><polygon class="st0" points="16 3.5 13.8 3.5 13.8 5.7 12.7 5.7 12.7 3.5 10.5 3.5 10.5 2.4 12.7 2.4 12.7 0.2 13.8 0.2 13.8 2.4 16 2.4 "/><path class="st0" d="M8.3 9.2c-0.4-0.3-1.4-1-1.4-1.5 0-0.5 0.2-0.8 0.9-1.4 0.8-0.6 1.4-1.5 1.4-2.5 0-1.1-0.5-2.2-1.3-2.7h1.2L10.2 0c0 0-3.5 0-4.7 0C3.1 0 1.1 1.8 1.1 3.7c0 2 1.3 3.6 3.6 3.6 0.2 0 0.3 0 0.5 0C4.9 7.5 4.8 7.8 4.8 8.2c0 0.6 0.3 0.9 0.7 1.2 -0.3 0-0.6 0-0.9 0C1.9 9.4 0 11.3 0 13.1 0 14.9 2.3 16 5.1 16c3.1 0 5-1.8 5-3.6C10.1 11 9.8 10.3 8.3 9.2zM2.8 3.7C2.6 2 3.5 0.7 4.7 0.8c1.3 0 2.4 1.4 2.6 3.1 0.2 1.7-0.5 2.7-1.8 2.7C4.3 6.5 3.1 5.3 2.8 3.7zM5 15.2c-1.9 0-3.3-1.2-3.3-2.6 0-1.4 1.6-2.6 3.5-2.6 0.4 0 0.9 0.1 1.2 0.2 1 0.7 1.9 1.2 2.1 2 0 0.2 0.1 0.3 0.1 0.5C8.6 14.1 7.7 15.2 5 15.2z"/>
 </a>
</svg>
