<svg id="Layer_1" xmlns="http://www.w3.org/2000/svg" viewBox="0 0 261.2 261.1"><style>.st0{fill:#9B9B9B;}</style><path class="st0" d="M130.6 197.1c-36.7 0-66.6-29.9-66.6-66.6C64 93.9 93.9 64 130.6 64s66.6 29.9 66.6 66.6c-.1 36.7-29.9 66.5-66.6 66.5zm0-132.1C94.4 65 65 94.4 65 130.6s29.4 65.6 65.6 65.6 65.6-29.4 65.6-65.6S166.7 65 130.6 65z"/><path class="st0" d="M90.5 127.9c-.1.1-.3.1-.6 0v-.8c.2 0 .4.1.6.2v-13.7c-.2-.2-.1-.4-.4-.6-.3-.3-1-.3-.9-.9H85c-.3.8-.6 1.5-1.1 2.2h.3v.4h-.4v-.2c-.2.3-.3.5-.5.7.3.2.9.2.9-.3.4.2.7.4.6 1.1-.8.1-1.6 0-1.7-.7-.1.2-.3.3-.4.5.3.1.6.2.6.6-.2.2-.8.2-1.1 0-.5.5-1 .9-1.5 1.3-2.1 1.6-4 2.7-5.7 3.3v6.1c2.9-.9 5.4-2.3 7.6-4.2-.6.1-.6-.4-.3-.7.2.1.4.2.4.5.3-.3.7-.5 1-.8v5.5c.3.2.6.5.7.7-.1.2-.4.1-.7 0v19.2h6.7v-19.4zm-13.4-4.1c-.1-.1.2-.3.2-.2.1.1-.1.2-.2.2zm1.3-4.2h.4v.4h-.4v-.4zm1.2 3.1c-1.1.3-1-1.2-.6-1.7.8 0 1 1.2.6 1.7zm3.2-5.9c1 .2-.2 1.3 0 0zm-.2 2.5c-.5-.3-1-.7-1.1-1.5 1-.7 2.1.9 1.1 1.5zm.6 2.6h-.4v-.4h.4v.4zm5.5-8.4h.4v.6h-.6c-.1-.4.2-.4.2-.6zm-1.1 9.2h.8c-.1.2-.2.3-.2.6h-.6v-.6zm.5 6.3c0 .2-.2.1-.2 0 0-.2.2-.1.2 0zm-.2-2.7c0 .2-.2.1-.2 0 0-.3.2-.1.2 0zm-.7 1.7h.6v.6h-.6v-.6zm-1.5-1.7c-.4-.2-.8-.5-.4-.8.4 0 .5.3.4.8zm-.8-5.5c.6-.1.7.3.6.8-.5.1-.7-.2-.6-.8zm0 5.3c.3.1.4.4.4.8-.6.1-.7-.5-.4-.8zm-.6 3.8c.1-.3.4-.2.4 0-.1.3-.2-.1-.4 0zm0-3c.6-.1.2.8.8.6-.3.7-1.5-.1-.8-.6zm1 14.5c.8.2.1 1.2 0 1.7-1-.3-.2-.9 0-1.7zm1.1 2.3c-.5 1.8-1.7-1 0 0zm-.4 3.2v-.4c.4-.1.7 0 .6.4H86zm.8-11.4c-.1-.1.2-.3.2-.2.1.1-.1.3-.2.2zm.4-5.2c-.1-.7.5-.8.8-.4 0 .3-.3.4-.8.4zm.9 10.1c.2-.4.6-.9 1.1-.4.1.7-.8.7-1.1.4zm1-17.9c-.5-.1-.5-.6-.2-.8.5 0 .5.5.2.8zm.4-3.6c.8.6-1 .5 0 0zM90.5 112.9v-.8h-.3c0 .3.1.6.3.8zM162.6 127.8c1.5-1.6 2.2-3.9 2.2-6.9 0-1.2-.1-2.3-.3-3.3-.3-1.1-.7-2.1-1.3-3h-.4v-.4h.1c-.1-.1-.2-.2-.2-.3-1.3-1.4-2.9-2.2-4.8-2.3-.1.2-.2.3-.6.3v-.3h-.1c-2.4 0-4.2.9-5.5 2.6-1.3 1.8-1.9 3.9-1.9 6.4 0 3.2.7 5.6 2.1 7.2 1.4 1.6 3.2 2.4 5.3 2.4 2.2 0 4-.8 5.4-2.4zm-.9-10.6h.4v.4h-.4v-.4zm-1.4-4.6c.1.1-.2.3-.2.2-.2-.1.1-.2.2-.2zm-5.7 13.3c-.7-.9-1.1-2.5-1.1-4.8 0-2.5.4-4.2 1.1-5.1.7-.9 1.6-1.4 2.7-1.4s2 .5 2.7 1.4c.7.9 1.1 2.5 1.1 4.8 0 2.5-.4 4.2-1.1 5.1-.7.9-1.6 1.4-2.7 1.4-1 0-1.9-.5-2.7-1.4zM185.4 132.5c-1.4-1.6-3.3-2.4-5.5-2.4-2.4 0-4.3.9-5.5 2.6-1.3 1.8-1.9 3.9-1.9 6.4 0 3.2.7 5.6 2.1 7.2 1.4 1.6 3.2 2.4 5.3 2.4 2.2 0 4-.8 5.4-2.4 1.5-1.6 2.2-3.9 2.2-6.9.1-3-.6-5.4-2.1-6.9zm-2.6.7c.1.1-.2.3-.2.2-.1-.1.1-.2.2-.2zm-7.2 7.4h-.4c0-.2-.1-.2-.2-.2-.1-.4 1-.3.6.2zm7.2 3.7c-.7.9-1.6 1.4-2.7 1.4s-1.9-.5-2.7-1.4c-.7-.9-1.1-2.5-1.1-4.8 0-2.5.4-4.2 1.1-5.1.7-.9 1.6-1.4 2.7-1.4s2 .5 2.7 1.4c.7.9 1.1 2.5 1.1 4.8-.1 2.5-.4 4.2-1.1 5.1zm3.3-1.4c-.2 0-.2-.4-.2-.6.4-.1.4.2.4.4-.1-.1-.1.1-.2.2zM171.8 127.3c-.1-.5.1-.8.6-.8l3.6-7c-.1 0-.1-.1-.2-.2-.1-.6.4-.7.6-1.1.1 0 .1 0 .1.1l3.5-6.7h-3.5l-1.7 3.3c.3.2.7.4.5 1.1-.4-.1-.8-.1-1.1 0l-17 32.8h3.6l11-21.4c.1-.1.1-.1 0-.1zm-.2-6.1h.4v.4h-.4v-.4zM115.5 144.4c.1-.1.2-.3.3-.4-.9.1-2.3.7-3.5 0-.4-1.6 1.6-.7 1.3-2.1 1 .4 2.2.7 2.5 1.9 1.6-2.4 2.6-5.8 2.9-10.4-.2.4-.6.6-1.1.5-.8-.8-.2-2 0-2.9.6-.2 1 .2 1.2.7v-1.5-.8c-.6.1-.7-.4-1.2-.4.1-.3.4-.4.4-.8.4.1.7.4.8.8-.1-6-1.3-10.3-3.4-13-1.9-2.4-4.6-3.6-8-3.6-3.4 0-6.1 1.2-8 3.6-.5.6-.9 1.4-1.3 2.2h.3c-.1.5-.3.7-.7.9-.3.6-.5 1.3-.7 2.1.7 0 .6.1 1.4 0 .1.8-.1.6-.6.6-.2 0-.7 0-.9-.1-.1.4-.2.7-.2 1.1.1.1.1.4.1.6h-.2c-.3 2-.5 4.3-.5 6.9 0 6.7 1 11.4 3.1 14.1 2.1 2.6 4.9 3.9 8.3 3.9 3.2-.3 5.8-1.5 7.7-3.9zm1.4-10.1c-.4-.1-.4.2-.4.4-.5-.1-.4-.8-.4-1.3.7-.1.7.4.8.9zm-1.3 2.5v.8h-.8v-.8h.8zm-.8-5.5c.2.2-.3.5-.4.4-.2-.2.3-.5.4-.4zm0 4.7c.2.2-.3.5-.4.4-.2-.2.3-.6.4-.4zm-7 7.7c-.1-.1.2-.3.2-.2.2.1-.1.3-.2.2zm.7 2.4c-.1-.1.2-.3.2-.2.1.1-.2.2-.2.2zm3.8-6.4c0-.4.5-.3.8-.4 0 .4-.5.3-.8.4zm1-21c0 .2-.2.1-.2 0 .1-.2.2-.1.2 0zm-1.5 1.3c.2.6-.5.4-.8.4.1-.4.4-.5.8-.4zm-7.3-5.3c.5-.1.8 0 1.1.2 0 .5-.3.8-.8.8-.3-.2-.4-.5-.3-1zm1 2.3v.8h-.8v-.8h.8zm-.8 2.1c-.1.5-.8.4-.8 0 .1-.6.3.1.8 0zm-1.3-1.6c.5.1.5.6.2.8-.4-.1-.4-.6-.2-.8zm-3.8 13.4c-1.4.2-2.4-.1-2.1-1.7 1.5-.2 2.4.1 2.1 1.7zm.5 1.5c-.1-.1.2-.3.2-.2.1.1-.2.2-.2.2zm.4-6.3c-.1-.1.2-.3.2-.2.1.1-.2.2-.2.2zm1 19.3h-.8c-.1-.4.1-.6.2-.8.6-.1.7.3.6.8zm-.8-26.7c-.7.2-.5 0-1.3 0v-1.1c.6-.1.4-.1 1.1 0 .3-.9-.9-1-.2-1.7 1 .2 1.5.9 1.7 1.9-.4.6-1.6-.5-1.3.9zm4 27.6c-.4.4-.4-.1-1.1 0-.1-.9 1.3-1.3 1.1 0zm-.9-7.7c-.4-1.5-.6-4.4-.6-8.5s.2-7.1.7-8.8c.4-1.3.8-2.3 1.5-2.8.6-.5 1.4-.8 2.2-.8s1.5.3 2.2.8c.6.5 1.2 1.5 1.6 3.1.4 1.3.6 3.6.6 6.8h1.2c.2 1.1-.2 1.7-1.2 1.7 0 1.9-.1 3.6-.2 5h.1c0 .1-.1.1-.1.2-.1 1.5-.3 2.7-.5 3.5-.1.5-.3.9-.4 1.3 1-.2.5 1 .6 1.7h-1.3c-.1-.3 0-.5 0-.6-.1.2-.3.3-.4.4-.6.5-1.4.8-2.2.8s-1.5-.3-2.2-.8c-.6-.5-1.2-1.5-1.6-3zM126.9 115.7c-2.1 2.7-3.3 7-3.4 12.8.3.3.3 1 .1 1.2h-.2v.4c0 2.5.2 4.8.5 6.8.6 0 1 .2 1.4.5v1.7c-.3.3-.6.3-.9.2.5 2.1 1.2 3.7 2.2 4.9.1.2.3.3.4.5.3-.9 2.1-.5 2.1.6-1.1.3-1.1-.4-1.9-.4 2 2.1 4.6 3.2 7.6 3.2 3.4 0 6.1-1.2 8-3.6 2.3-2.9 3.5-7.7 3.5-14.3 0-6.7-1.1-11.4-3.4-14.3-1.9-2.4-4.6-3.6-8-3.6-3.4-.2-6.1 1-8 3.4zm.3 17.9c0 .2-.3.2-.4.2 0-.1.2-.1.4-.2zm-.8-11.9c0 .2-.2.1-.2 0 0-.3.2-.2.2 0zm-1.9 12.1c.1-.5.8-.4.8 0-.4.3-.7.6-.8 0zm1.7-11.7h.6v.6c-.5 0-.7-.2-.6-.6zm.4 16.8c-.3-1.1.8-.8.8-1.7.6.2.7.7 1.3.8-.1 1-1.1 1-2.1.9zm1.7 3.8c-.4-.4-1.6-.1-1.3-1.3.4-.3.9-.5 1.7-.4.2.9-.3 1.1-.4 1.7zm16.8-7.4h.4v.4h-.4v-.4zm-15.6-17V117c.7-.1.7.4 1.3.4-.1.3-.4.4-.4.8-.3.1-.6.1-.9.1zm2.6 27.7c-.9.1-1.3-.3-1.3-1.3h1.3v1.3zm4-1.2c-.1-.5.1-.9.6-.8 0 .5-.1.9-.6.8zm6.3-13.3c.1.4-1 .3-.6-.2.3 0 .3.2.6.2zm-1.3-2.1h.6c-.1.3.2 1.1-.2 1.1-.7.2-.3-.7-.4-1.1zm-2.5-11.3c.2 0 .2-.1.2-.2.4-.1.3 1-.2.6v-.4zm0 3.5c.4 1.5.6 4.4.6 8.5s-.2 7.1-.7 8.8c-.4 1.3-.8 2.3-1.5 2.8-.6.5-1.4.8-2.2.8-.8 0-1.5-.3-2.2-.8-.6-.5-1.2-1.5-1.6-3.1-.4-1.5-.6-4.4-.6-8.5s.2-7.1.7-8.8c.4-1.3.8-2.3 1.5-2.8.6-.5 1.4-.8 2.2-.8.8 0 1.5.3 2.2.8.7.5 1.2 1.5 1.6 3.1zm-3-6.7c.3.2.9.2.8.8-.4 0-.9-.1-.8-.8zM62.9 79.9c.3-1.3.1-2.6-.4-3.7-.5-1.2-1.3-2.1-2.3-2.8-1.1-.8-2.2-1.2-3.3-1.2-1.1 0-2.1.2-3.1.8-1 .5-2.3 1.6-3.9 3-1.6 1.5-2.7 2.3-3.4 2.5-.5.2-1 .1-1.4-.2-.5-.3-.7-.7-.7-1.3 0-.9.3-1.8 1-2.9.7-1 1.4-1.6 2.1-1.9.7-.2 1.6-.1 2.6.3l2.3-3.7c-1.7-1-3.4-1.3-5.1-.8-1.7.5-3.4 1.8-4.9 4.1-.9 1.4-1.5 2.7-1.7 3.9-.2 1.2-.1 2.4.3 3.4s1.1 1.8 1.9 2.4c.2 0 .4 0 .6.1 0 .1-.1.2-.1.2 1.3.8 2.8 1 4.4.6 1.2-.3 2.7-1.3 4.5-2.9 1.4-1.3 2.3-2 2.7-2.4.6-.5 1.2-.7 1.6-.8.5 0 .9.1 1.3.3.7.4 1 1.1 1.1 2 .1.9-.2 2-1 3.1-.7 1.1-1.6 1.8-2.6 2.1-1 .3-2.1.1-3.5-.4l-2 3.7c2.2 1.1 4.2 1.4 6 .9 1.9-.5 3.5-1.9 5-4.2 1.1-1.4 1.8-2.9 2-4.2zm-13.1-9.8c-.6.6-1.3-.1-1.3-.8.8-.1 1.4-.1 1.3.8zm-.5 11.6c-.5-.5-.3-1 0-1.5.7-.2.5.3.8.4.2.8-.7.5-.8 1.1zm7.6-9c.4-.1.4.3.4.6-.2 0-.2-.2-.4-.2v-.4zm.4 2.5c-.3-1.3 1.5-1.4 1.5-.2-.4.4-.8.5-1.5.2zM59.2 52.9l-3.3 3.2 8.8 21.3 3.3-3.2-2.1-4.7 4.8-4.6c-.3-.3-.3-.7-.3-1.3.5 0 .9.2 1.1.5l.6-.6 4.7 2.2.9-.9c0-.5.3-.7.2-1.3.3-.1.5.2.6.5l1.6-1.6-20.9-9.5zm5.1 3.4c-.1.3-.4.2-.4 0 .1-.4.1 0 .4 0zm-2.3-.5c0 .2-.3.2-.4.2 0-.2.2-.1.4-.2zm-3.6-1.9c.6-.1.9.1.8.6-.4.5-1 .2-.8-.6zm1.3 3c.1-.7-.4-.7 0-1.1.5.1 1.1.2 1.1.8-.3.3-.7.4-1.1.3zm2.1 4.8c.8-.1 1.1.4 1.1 1.3-1 .1-1.1-.5-1.1-1.3zm2.6 4.2L61 58.2l7.6 3.7-4.2 4zm4.7.4c-.7.1-1.2-.1-1.1-.8.8-.1 1.3.1 1.1.8zM66.4 46.6l-.5.3 2 3 5.3-3.5 1.2 1.9c0-.1.1-.2.2-.2.3.1.4.3.4.6h-.3L83 61.4l3.6-2.4-3.2-4.8c-.6.1-.7-.5-.5-.9l-.3-.4c0 .4-.1.7-.6.7v-.8h.5l-5.2-8c-.2.4-.9.2-.8-.4.3-.2.3-.1.5-.1l-.1-.3 4.7-3.1c-.1-.3 0-.8 0-1.1-.2-.6-1-.5-1.1-1.3h.4l-.7-1.1-13.6 8.9c.1.2-.2.3-.2.3zm17.7 10.3h.4v.6h-.6c-.1-.3.2-.3.2-.6zm-4.7-5.1c.4.5.9 1 1.1 1.9-.2.1-.4.2-.4.4-1 .1-.6-1-1.7-.8-.1-.9.8-.9 1-1.5zM97.1 53.5L88 34.1l-4 1.8 9.1 19.5 4-1.9zm-2.5 0c1 .2-.2 1.3 0 0zm-4-6.1h.8c.1.5 0 .8-.2 1.1-.4-.2-.8-.4-.6-1.1zm.8 2.8v-.8c.6-.1.9.1.8.6-.1.1-.4.2-.8.2zm1.3-1.7c-.7-.2-.9-.9-1.3-1.5.2-.4.8.1 1.1.4.2.2.7.5.2 1.1zM94.4 33.9c-.2.5-.2 1.1-.2 1.6.2.1.3.4.2.7h-.2c0 .3.1.6.2.9.5 1.6 1.5 2.8 3.1 3.6 1.1.5 2.9.8 5.3.6 1.9-.1 3.1-.1 3.6-.1.8 0 1.4.2 1.8.4.4.3.7.6.8 1.1.2.8.1 1.5-.4 2.3-.5.8-1.4 1.3-2.8 1.7-1.3.4-2.4.4-3.3-.1-.9-.4-1.7-1.3-2.4-2.6l-3.9 1.6c1 2.2 2.3 3.7 4.1 4.5 1.8.8 3.9.8 6.5 0 1.8-.5 3.2-1.2 4.3-2.1 1.1-.9 1.8-1.9 2.1-3.1.4-1.2.4-2.4 0-3.6-.4-1.3-1-2.3-1.8-3l-.1-.1v.3c-.5 0-.6-.4-1.3-.2.1-.4 0-.7 0-.9-.5-.2-.9-.4-1.5-.5-1.1-.2-2.8-.3-4.9-.2-.7 0-1.2.1-1.8.1v.3c-.3 0-.5-.1-.6-.3-.9 0-1.5-.1-1.9-.3-.5-.2-.8-.6-1-1.1-.2-.5-.1-1 .3-1.5.5-.7 1.4-1.2 2.6-1.6 1.2-.3 2.1-.4 2.8-.1.7.3 1.3.9 1.8 1.9l4.1-1.4c-.6-1.9-1.8-3.2-3.4-3.9-.4-.2-.7-.3-1.1-.4 0 .2 0 .4-.1.8h-.8c0-.6.4-.4 0-.8-.3.1-.4.3-.4.6-.9-.1-.4-.8-1.5-.4 0-.1-.1-.1-.1-.2-.2 0-.3 0-.5.1-.1.2-.3.3-.6.4v-.2c-.4.1-.7.2-1.1.3-1.6.5-2.9 1.1-3.8 1.9-1.1 1-1.8 2-2.1 3zm.8 2.6c-.2 0-.2-.4-.2-.6.4-.1.4.2.4.4-.1-.1-.2.1-.2.2zm1.9 9.5c.6-.1.9.1.8.6-.5 0-1 .1-.8-.6zm3 3.9c-.1-.1.2-.3.2-.2.1.1-.2.3-.2.2zm2.5-1.8c.4-.3.3 0 .8 0 .2.8-1 .8-.8 0zm4 .2c-.1-.1.2-.3.2-.2.1.1-.2.2-.2.2zm3.4-9.1c.6-.2.4.5.4.8h-.6c-.1-.4.1-.5.2-.8zm-2.8.2c0 .3 0 .6.2.6-.3.3-.8.5-1.1.2.1-.5.4-.7.9-.8zm-3.8.9h.6v.6h-.6v-.6zm-.6-2.8c-.1.5-.6.5-.8.2 0-.4.5-.4.8-.2zm3.6-5.2c-.5 0-.7-.2-.6-.6h.6v.6zm-.2-2.5c.5.5-.5.6-.2 1.5-1.4.2-.8-1.7.2-1.5zm-3.4 1c.6-.3.6.9 0 .6v-.6zm-2.3.6h.4v.4h-.4v-.4zm-1.9.2c.6-.2.4.4.8.4-.1.3-.4.3-.4.6-.3-.2-.7-.3-.6-.8.2.1.2 0 .2-.2zM114.8 29.2c0-.1.1-.2 0-.4h.6c.1.7-.1.9-.6 1l1.5 17.8 4.3-.4-.8-9.1 2.9-.2h.4l5.6-.5-.3-3.6-8.9.8-.4-5.1 10.3-.9-.3-3.6h-.6c0 .1 0 .2.1.2-.7-.3-1 .9-1.5.2-.1-.2-.1-.3 0-.3l-12.7 1.1.4 3zm13.3 5c.9.1-.2 1.2 0 0zm-10.6 1c-.2.4-.6.9-1.1.4.3-.3.6-.4 1.1-.4zm0 .9c0 .9.3 1.1-.2 1.7-.7-.3-.9-.3-1.5-.4 0-1.4 1-1.2 1.7-1.3zm-2.1-5.5c.3-.1.4.2.6.2.1.4-.9.3-.6-.2zM139.3 25.4l-4.7 9.2c.4.1.7.6.3 1-.3 0-.5-.1-.7-.2l-2.4 4.6c.6 0 .9.3.7 1.1-.7-.2-.8.3-1.4.2l-.7 1.3v.1l-1.6 3.2 4.6.5 1.9-3.8c-.5-.1-.4-1 .3-.8v.2l.1-.2 8.5.9 1.4 5 4.7.5-6.3-22.3-4.7-.5zm9.2 21.4c-.3.3-1 .3-1.3 0-.2-.7.3-.7.4-1.1.2.2.5.2.8.2.1.3.1.6.1.9zm-1.5-3.2c.3-.1.4.2.6.2.1.5-.9.4-.6-.2zm-2.3-10.1c0 .2-.2.1-.2 0 0-.2.2-.1.2 0zm0 2.8c.2 0 .2.2.4.2 0 .2-.2.2-.2.4-.2 0-.2-.2-.4-.2 0-.2.2-.2.2-.4zm-1.1 0c.1.1-.2.3-.2.2-.1-.1.2-.3.2-.2zm-.6-2.8c.1.1-.2.3-.2.2-.1-.1.1-.2.2-.2zm-2-2.8l2.1 8.2-5.8-.6 3.7-7.6zm-.3 10.4c.1-.3.4-.2.4 0-.2.1-.4.3-.4 0zm2.5 1.3c-.4.1-.6-.1-.8-.2.1-.2.2-.3.2-.6.5-.1.7.2.6.8zm.9-5.5v.4c-.2 0-.2.1-.2.2h-.4c0-.2-.1-.2-.2-.2v-.4c.2 0 .2-.1.2-.2h.4c-.1.2 0 .2.2.2zM152.6 38.1c-1.1 3.2-1.1 6 0 8.5 1.1 2.4 3 4.1 5.7 5.1 2.2.8 4.2.8 6 .3.5-.2 1.1-.4 1.6-.7-.3-.1-.4-.4-.3-.8-.4.4-1.2.1-1.7 0-.1-.7.1-1.2.2-1.7.5 0 .4.7.4 1.3.5 0 .7-.4 1.1 0 .3-.1-.7-1.2.6-1.1.1.8-.5 1.1.2 1.5.1.5-.3.5-.4.7 1.1-.7 2.1-1.7 3.1-3.1l-1.6-1.2c-.1.4-.5.4-1 .4.2-.3.6-.3 1-.4l-1.9-1.4c-.2.3-.4.5-.5.8v.1c-.7.9-1.4 1.5-2.2 1.9-1 .4-2.1.4-3.2.1-1.5-.5-2.5-1.5-3-2.9s-.4-3.4.5-6c.8-2.4 1.9-4 3.2-4.8 1.2-.7 2.5-.8 3.9-.4.1-.2.4-.1.4.1 1.1.4 1.9 1 2.4 1.9.6.9.8 1.9.6 3l4.4.4c.1-1.8-.2-3.3-.8-4.5-1-2-2.8-3.4-5.3-4.3-2.8-1-5.5-.8-7.9.4-2.5 1.1-4.3 3.5-5.5 6.8zm12.7 8.5c.7-.1.8.4.8.8h-.8v-.8zm-.2 2.5c-.1.3-.2 0-.4 0 0-.3.4-.2.4 0zm-6.5-.6c.6-.3.6.9 0 .6v-.6zm-1.3-10.1c0 .2-.2.1-.2 0 0-.3.2-.1.2 0zM181.4 42.3l-3.7 6c.3 0 .6-.1.6-.1.3.1.3.6.4.6.3.1.4-.2.4-.2.4.1.2.9.8.6-.4.7.2 1.2-.2 1.7-1.2-.1-.1-1.3-.6-1.9-.8.6-1.1-.7-1.7.2-.1 0-.2-.1-.3-.1l-5.1 8.4 3.7 2.2 4.7-7.8c-.5.1-.4.8-1.2.7.2-1 .4-1.9 1.7-1.7v.2l1.1-1.7v-.6c.1-.1.3-.1.3 0l2.6-4.4 5.4 3.3 1.9-3.1-14.6-8.8L176 39l5.4 3.3zM176 55v-.6h.6c.1.3-.2.4-.2.6h-.4zm.9 2.3c-.8-.1-.3-1 0-1.3.8.2.2.9 0 1.3zm3.8-12.6c0 .2-.2.1-.2 0 0-.3.2-.1.2 0zm0 5.9c-.4 0-.5-.4-.4-.8.6-.3.3.4.4.8zm-.4-1.5c.2-1.2-1.1-1.6-.2-2.3.8 0 .6 1.1 1.1 1.5-.4.3-.3.9-.9.8zm9.2-5c.5.3.7.4.4 1.1-.4.1-.6-.1-.8-.2-.2-.7.4-.5.4-.9zm-7.8 3.7c.1.1-.2.3-.2.2-.1-.1.2-.2.2-.2zm-3.3-9.6c-.1.4-.4.5-.8.4-.2-.7.4-.8.8-.4zM195.6 53.9v-.6c.3-.2.5.1.4.4l.7-.8c-.1-.1 0-.2.1-.4.1 0 .1.1.1.1l1.9-2.4-3.4-2.7-7 8.6c0 .3 0 .6.2.8-.4.1 0 1-.8.6-.2-.6.4-.4.4-.8l-.1-.1-6.2 7.6 3.4 2.7L195.9 54c-.1 0-.2 0-.3-.1zm-12.2 10.3h-.4v-.6c.3-.1.4.2.6.2 0 .2-.2.2-.2.4zm12.8-15.7c.6-.1.7.3.6.8-.6.1-.9-.1-.8-.6.2 0 .2-.1.2-.2zm0 2.3c-.1-.1.2-.3.2-.2.2.1-.1.2-.2.2zm-.6-3c.6-.3.6.9 0 .6v-.6zm-5.5 11.4c-.1-.7.2-.9.8-.8.2.6-.1.9-.8.8zm3.4-4.8c.7-.5-.5.7 0 0zm.4-3.6c-.1-.1.2-.3.2-.2.2.1-.1.2-.2.2zm.9.8c.2-.9.3-.9.4-1.7 1 .3.4 2.1 1.3 1.7.5.3-.1 1.1-.8.8 0-1 0-1-.9-.8zM209.8 74.8s-.1 0 0 0c-.2-.1.1-.3.1-.2v.1c1.1-1.2 2-2.5 2.4-3.9-.3.1-.6.1-.8-.1-.3.2-.2.9-.4 1.3H210c-.4-1.5 1.2-.9 1.3-1.9.5-.2.7 1 1.1.2 0 0 .1 0 .1.1.2-.6.3-1.2.4-1.8.2-2.7-.7-5.3-2.8-7.6-1.1-1.2-2.3-2.2-3.5-2.8-.2.1-.4.1-.7 0v-.3c-.6-.2-1.2-.4-1.8-.5-.1.4-.1.8-.3 1-1.1.1-1.3-.5-1.7-1.1v-.1c-.9 0-1.7.2-2.5.4-1.5.5-3.1 1.5-4.8 2.9-.9.8-1.6 1.6-2.3 2.5.6.1.8.5.8 1.2-.4 0-.4.3-.8.2-.4-.4-.2-.9 0-1.3-1.1 1.5-1.7 3.1-1.8 4.8-.2 2.7.7 5.3 2.8 7.6 2.1 2.4 4.5 3.6 7.2 3.7 1 0 2-.1 3-.4h.1c1.6-.5 3.2-1.4 4.8-2.8.5-.5.8-.9 1.2-1.2zm.3-6.3c0-.2.3-.2.4-.2.1.1-.2.1-.4.2zm1.1-.5c-.2.1-.4.3-.4 0 0-.2.4-.2.4 0zm-1.3-3.5c.3.4.9.5.8 1.3h-1.3c0-.7.8-.6.5-1.3zm-1.2 0c.4-.1.7 0 .6.4h-.6v-.4zm-4-6.8h.4c.1.3-.2.4-.2.6h-.4c-.1-.3.2-.3.2-.6zm-.7 1.9c-.1.3-.4.3-.4.6-.9-.1-.1-1.3.4-.6zm-2.5-1.2c0 .2-.3.2-.4.2 0-.2.2-.2.4-.2zm-2.9 2.7h.6v.6h-.6v-.6zm-3 1.3c0 .2-.2.1-.2 0 0-.3.2-.2.2 0zm-1.5-1.3h.6v.6h-.6v-.6zm-1.8 3.4c.1.1-.2.3-.2.2-.2-.1.1-.3.2-.2zm-.9.6c.1-.3.4-.2.4 0-.2.1-.3.2-.4 0zm.2 2.5c.3-.1.4.2.6.2.1.4-.9.3-.6-.2zm1.3 3.8h-1.1c-.2-.9.4-1.2 1.1-1.3v1.3zm0-1.7c-.2-.2-.6-.3-1.1-.2.2-.5 1.3-.7 1.1.2zm-.2-3.6c-.5-.1-.1-.9 0-1.1.7.3.2.8 0 1.1zm.6 3.8c.5.1.5-.4 1.1-.2-.3.3.1 1.3-.6 1.3.5-.6-.7-.3-.5-1.1zm1.1 4.2h-.4c-.1-.3.2-.4.2-.6.4.1.4.3.2.6zm.6-2.7c-.6.1-.7-.3-.6-.8.5-.1.6.2.6.8zm10.7 1.1c-1.9 1.6-3.6 2.5-5.3 2.5-1.7 0-3.1-.7-4.2-2s-1.6-2.8-1.4-4.5c.2-1.7 1.2-3.3 3-4.9 1.9-1.6 3.6-2.4 5.2-2.4s3.1.7 4.2 2c1.2 1.3 1.7 2.8 1.5 4.4-.1 1.6-1.1 3.2-3 4.9zm.9 3.3c.1-.5.6-.5.8-.2-.1.5-.6.5-.8.2zm1.9-5.9c.4.1.4.3.2.6h-.4c-.1-.3.1-.3.2-.6zM226 85.3l-8.7 4.6c.5.1.5.8.7 1.2-.8.2-.5.5-.4 1.3-.7-.1-.3-1.3-1.3-1.3.3-.4.7-.6.8-1.1l-3.8 2 4.2-7.2v-.4h.3l.1-.2v-.6h.4l3.6-6-2-3.7-19 10 1.9 3.6 9.2-4.9v-.2h.4l2.8-1.5-8.3 14.2 2 3.8 10.6-5.6c0-.2 0-.3.2-.5.3-.1.4 0 .4.2l2.9-1.6v-.1h.2l4.7-2.5-1.9-3.5zm-6.4-4.7h-.6V80h.6v.6zm-.6-1.4c-.4-.4 0-1.1.6-1.1.3.6.1 1-.6 1.1zm.8-2.3c0-.3-.1-.8.2-.8.8-.3.6 1.2-.2.8zm-.2-2.1h.4v.4h-.4v-.4zm-.8 1.2c.5.3 1.4.9.8 1.7-.4.2-.5-.4-.6-.4-.5 0-.5.9-1.1.4-.1-.9.8-.9.9-1.7zm-2.6 1.9c.4.1.5.4.4.8h-.6c-.1-.4.2-.5.2-.8zm-.2 2.3c0 .2-.2.1-.2 0 .1-.2.2-.1.2 0zm-.6 1.5c-.4-.2 0-.4 0-.6.4.1 0 .4 0 .6zm-5.7 1.7c-.5-.4 0-.9.2-1.3.2.1.3.2.6.2.2.8 0 1.2-.8 1.1zm1.7-2.5c-.4.1 0 1-.8.6.3-.7 1-1.1 1.1-2.1.8.3-.3 1 1.1.6v.8c-.6.1-1 .1-1.4.1zm1.3.6c0-.2.2-.1.2 0-.1.2-.2.1-.2 0zm-.2-2.5h.6c.1.4-.1.6-.2.8-.4 0-.5-.4-.4-.8zm.6 1c0-.2.2-.1.2 0 0 .3-.2.1-.2 0zm.4.4c0-.2.3-.2.4-.2 0 .2-.2.2-.4.2zm.8-.4c-.3-.4.2-1.4 1.1-1.3-.1.8-.2 1.3-1.1 1.3zm.3 5.9c.4.1.4.3.2.6h-.4c-.1-.3.1-.3.2-.6zm-.3 4.2c.1.1-.2.3-.2.2-.1-.1.2-.2.2-.2zm-.6-5c.9.1-.2 1.2 0 0zm3 7.3c-.2 0-.2-.4-.2-.6.4-.1.4.2.4.4-.2 0-.2.1-.2.2zm1.2.9h-.4v-.6h.6c.1.3-.2.3-.2.6zm.9-.2c.1.4 0 .7-.4.6 0-.8.1-1.6 1.1-1.5 0 .6-.2.9-.7.9zm3.1-2.6c-.1-.4.1-.6.2-.8.6 0 .5 1-.2.8z"/><g><path class="st0" d="M175.2 226.8l-7.8-16-5.7 2.8-1.6-3.3 15.3-7.5 1.6 3.3-5.7 2.8 7.8 16-3.9 1.9zM38.3 163.9l1.7 4.7-2.6.9c-.7-.4-1.4-1-2-1.8-.6-.7-1.1-1.5-1.4-2.4-.6-1.7-.5-3.3.3-4.8s2.4-2.7 4.8-3.5c2.2-.8 4.1-.9 5.6-.2s2.6 1.9 3.2 3.7c.4 1.2.5 2.3.2 3.3s-.9 1.8-1.8 2.4l2.2 3.8c1.7-1.1 2.8-2.5 3.4-4.3.6-1.8.4-3.9-.5-6.4-.7-1.9-1.6-3.4-2.7-4.5-1.5-1.4-3.2-2.2-5.1-2.5-2-.3-4-.1-6.1.7-1.9.7-3.6 1.7-5 3.1-1.4 1.4-2.2 3-2.6 4.9-.3 1.9-.1 3.9.6 6 .6 1.7 1.5 3.2 2.7 4.6 1.2 1.4 2.4 2.4 3.5 2.9l8.1-2.9-3.1-8.8-3.4 1.1zm.3.2c-.1-.1.2-.3.2-.2.1.1-.1.3-.2.2zm-6.5-2.7c-.2 0-.2-.2-.4-.2 0-.2.2-.2.2-.4.2 0 .2.2.4.2-.1.2-.2.2-.2.4zM155.1 211.9l-4 .8 2.7 14.1-11.4-12.4-4.1.8 4.1 21.1 4-.8-.3-1.6c-.1.1-.3.1-.4.1-.2-.5.1-.5.3-.7l-2.2-11.5 5.2 5.6c0-.3.3-.6.1-1.2 1-.4.8 1.5.1 1.5l.5.5v-.4c.2 0 .2-.1.2-.2.4-.1.3.8-.1.7l2.3 2.5c.4 0 .6.1.6.4h-.2l2.4 2.6 4.3-.8-4.1-21.1zm-2.6 6.9v-.8c.8-.2.8 1 0 .8zm-9.9 13.3h-.6c-.1-.4.1-.6.2-.8.6-.3.3.4.4.8zm2.3 1.9c-.5.5-1.3.1-1.1-.8.8-.2 1.2 0 1.1.8zm-1.3-7.6v-.6c.6-.4.6.9 0 .6zm7.2 2.1c.2-.2.6-.3 1.1-.2.3 1-1.3 1.1-1.1.2zm1.7 1.7c-.7.2-.9-.5-.6-.8.5-.1.6.2.6.8zm.4-.4c-.1-.1.2-.3.2-.2.1.1-.2.2-.2.2zm2.5-.7c-.1-.1.2-.3.2-.2.1.1-.1.3-.2.2zM203.4 203.1l-9.1 7.8-3.8-4.5 8.2-7-2.3-2.8-8.2 7-3.2-3.6 8.8-7.5-2.4-2.8-12.1 10.3 13.9 16.4 12.4-10.6-2.2-2.7zm-11.8-.9c.1.1-.2.3-.2.2-.1-.1.2-.3.2-.2zm-6.1-6.1h.4v.4h-.4v-.4zm-4.8 4.6c-.1-.1.2-.3.2-.2.1.1-.2.3-.2.2zm8 7.6c.9.1-.2 1.3 0 0zm14.1-.6h-.4v-.4h.4v.4zM212.8 191.8l-4.8-3.3 6.1-8.9h-.1-.1v-.1l-2.8-1.9-6.1 8.9-3.9-2.7 6.6-9.5-3-2.1-9.1 13.1 17.6 12.2 3.6-5.2c-.6.1-.5-.4-.3-.7.2.1.4.2.4.4l5.5-8-3-2.1-6.6 9.9zm-.1-11.3h.4v.4h-.4v-.4zm-11.6 4.2c-1 .2-.4-1.1 0-.4v.4zm1.3 4.9c-.1 0-.5-.3-.4-.4.2-.8.9.2.4.4zm5.4-3.8c-.1-.1.2-.3.2-.2.1.1-.1.3-.2.2zm7 4.4v-.4c.2 0 .2-.1.2-.2.4-.1.3.9-.2.6zm3.3-2.3c-.1-.4.1-.6.2-.8.4-.1.6.1.8.2-.1.3-.3.7-1 .6zM231.4 162c0-1.3-.2-2.5-.6-3.4-.1-.3-.3-.6-.5-.9-.1.2-.2.4-.6.3-.1-.2-.2-.3-.2-.6.1-.1.3-.2.5-.2-.5-.7-1.2-1.4-2-2-1.1-.8-2.4-1.5-4.1-2.1-1.9-.7-3.6-1-5-1-1.5 0-2.8.3-4 .8-1.2.5-2.2 1.3-2.9 2.4-.6.8-1.1 2-1.7 3.7l-2.6 7.5 20.3 7 2.7-7.7c.4-1.5.7-2.8.7-3.8zm-20.6.2c0-.2.2-.1.2 0-.1.3-.2.2-.2 0zm4.4-5.4c-.1 0-.5-.3-.4-.4.3-.8.9.2.4.4zm12 10.3c0-.2.3-.2.4-.2 0 .2-.2.1-.4.2zm.5-4.5c0 .6-.3 1.4-.7 2.5l-1.1 3.1-13.4-4.7.6-1.8c.6-1.7 1-2.8 1.4-3.3.4-.7 1-1.2 1.6-1.6.6-.3 1.4-.5 2.4-.5.9 0 2.2.3 3.8.8 1.6.5 2.8 1.1 3.6 1.7s1.3 1.2 1.6 1.8c.1.7.2 1.3.2 2zM48 196.7c1 .6 1.9.9 2.9 1 .7 0 1.3 0 2-.2v-.1c.1 0 .1 0 .2.1.2-.1.5-.2.7-.3.6-.3 1.4-.7 2.4-1.4-.1-.1-.2-.2-.1-.5.2 0 .2-.1.2-.2.3 0 .5.1.6.3.5-.3 1-.7 1.6-1.1l9.1-6.7-2.6-3.5-9.6 7c-1.4 1-2.4 1.7-3 2-.7.3-1.4.4-2.2.2-.8-.2-1.5-.8-2.3-1.8-.7-1-1.1-1.9-1.1-2.8 0-.9.3-1.7.9-2.3.4-.4 1.3-1.2 2.8-2.3l9.4-6.9-2.6-3.5-9.2 6.8c-1.9 1.4-3.3 2.6-4.1 3.6-.6.7-1 1.4-1.2 2.4-.2.9-.2 2 0 3.1s1 2.5 2.2 4.2c1 1.3 2 2.3 3 2.9zm11.2-6.1c-.2.1-.4.3-.4 0 .1-.2.4-.2.4 0zm-9.4 4.7c-.2.1-.4.3-.4 0s.4-.3.4 0zM74.6 221.2l6.3-22.3-3.6-2.8L57.6 208l3.2 2.5c-.2-.3-.5-.6-.4-1.2h.8c0 .5-.4.6-.2 1.3.6.1.5-.4.6-.8.1.3.7.1.8.4l3.2-2 6.8 5.2-1.5 5 3.7 2.8zm.6-16.9c.1-.3.4-.2.4 0 0 .3-.1 0-.4 0zm.7-3.8c-.1.3-.2 0-.4 0 0-.2.4-.2.4 0zm-7.2 8h-.8c0-.5.3-.8.8-.8v.8zm.1-2.4l7.2-4.6-2.5 8.1-4.7-3.5zM94.2 220.9l.2-.2c.4.1.5.5.3.8l.3.6c.2.6.6 1.8 1 3.8l1.2 5.5 4.8 1.9-.9-4.9c-.4-1.9-.7-3.3-1-4.1-.3-.8-.8-1.7-1.5-2.5 1.9.4 3.4.3 4.7-.3 1.3-.6 2.2-1.7 2.8-3.2.5-1.2.6-2.3.4-3.5-.2-1.1-.8-2.1-1.6-2.8-.8-.7-2.3-1.5-4.5-2.4l-8.5-3.3-7.8 20 4 1.6 3.3-8.4.8.3c.9.4 1.5.7 2 1.1-.1-.1 0 0 0 0zm-2.8-4.2c-.1-.1.2-.3.2-.2.2.1-.1.3-.2.2zm5.7-7.1c.4-.1.7 0 .6.4h-.6v-.4zm-2.5 1.6l3.2 1.2c1.6.6 2.6 1 2.9 1.2.6.4 1 .8 1.2 1.4.2.6.2 1.2-.1 1.8-.2.6-.6 1-1 1.3-.4.3-.9.4-1.5.4-.5 0-1.8-.4-3.7-1.2l-3-1.2 2-4.9zM117.2 230.9l8.6.8 1.4 5 4.7.4-.3-1.1c-.4 0-.6-.2-.6-.6h.4l-6.2-20.5-4.6-.4-10.2 20.7 4.6.4 2.2-4.7zm13.4 4.9c.1.6-.1.9-.6.8-.1-.5 0-.8.6-.8zm-4-6.9c0-.2.2-.1.2 0 0 .2-.2.1-.2 0zm.2-.8h-.4v-.4h.4v.4zm-.2-1.3c.1.1-.2.3-.2.2-.1-.1.1-.3.2-.2zm-7 3c0-.2.3-.2.4-.2.1.1-.2.1-.4.2zm.7-.9c0-.2.3-.2.4-.2 0 .2-.3.2-.4.2zm4 0h-.4v-.4h.4v.4zm-4-8.4c.7-.1.8.7.4 1.1-.5-.1-.9-.7-.4-1.1zm2.1-.7l2.3 8.2-5.8-.5 3.5-7.7zM118 230h-.4c0-.2-.1-.2-.2-.2-.2-.5.9-.4.6.2zm-1.3-1.1c.1.1-.2.3-.2.2-.1-.1.1-.2.2-.2z"/></g><path class="st0" d="M113.1 82.5l2 4.2 4.6.6-3.3 3.3.8 4.6-4.1-2.2-4.1 2.2.7-4.6-3.3-3.3 4.6-.6zM147.9 181.4l2.1-4.1 4.6-.7-3.4-3.2.8-4.6-4.1 2.1-4.1-2.1.8 4.6-3.3 3.2 4.6.7z"/><g><path class="st0" d="M245.4 117.9h-.3c-.1-.4 0-.6.3-.8-6.6-56.9-54.5-101.1-112.9-102-.2.3-.5.5-1 .6 0-.2 0-.4.1-.6h-.9c-11.7 0-22.9 1.7-33.5 5 0 .1-.1.2-.2.3-.2 0-.4 0-.5-.1l-1.8.6c0 .1.1.2.1.4.1.3.5.4.6.6.1.2-.2.2-.2.2 0 .1.1.3.3.6 4.4-1.4 8.8-2.6 13.4-3.4V19c.2 0 .4.1.6.2 6.9-1.3 14-2 21.1-2 1.6 0 3.2 0 4.8.1v-.7c.6-.1.9.2.8.7h.2V17h.6v.3c.9.1 1.8.1 2.7.2.2-.1.3-.2 0-.3 0-.3.6-.1.6-.4.6 0 .7.4.8.8 5.8.5 11.5 1.5 17.1 2.9 0-.2.2-.4.2-.6.3 0 .5.3.4.8 3.8 1 7.6 2.2 11.3 3.5.1-.1.3-.1.5-.1.2.2.2.3.1.3 14.8 5.6 28.4 14.4 40 25.9 12.3 12.3 21.5 27 27 43 .2 0 .5 0 .7.2 0 .4-.2.5-.4.7 3.4 10.2 5.4 20.9 5.9 31.9v-.4c.3 0 .4 1.1 0 1.3 0 1.2.1 2.4.1 3.7 0 22.5-6.5 43.9-18.6 62.3.3.3.1.8-.5.7-.3.5-.7 1-1 1.5h.2v.4h-.4v-.1c-3.8 5.5-8.1 10.6-13 15.4-5.3 5.3-11 10-17 14h.3v.4h-.4v-.3c-8.3 5.6-17.3 10-26.7 13.2v.4h-.4v-.3c-5.3 1.8-10.7 3.1-16.3 4.1.1.3 0 .6-.2.8-.3-.2-.6-.3-.6-.7-.3 0-.6.1-.9.1.2.1.3.4.2.7-.6 0-1.1 0-1.1-.6-5.7.9-11.4 1.3-17.2 1.3-22.7 0-44.3-6.6-62.7-18.9v.5c-.5.1-.8 0-1.1-.2.1-.3.4-.5.7-.5-6.1-4.1-11.8-8.8-17.2-14.1-14.6-14.6-24.7-32.4-29.7-51.9-.1 0-.2.1-.3.1-.1-.3.1-.4.3-.4-2.3-9.1-3.5-18.5-3.5-28.1 0-11.9 1.8-23.6 5.4-34.6-.3 0-.7-.2-.7-.6.2-.2.6-.3.9-.1C28 78.4 37.3 63.1 50.2 50.3c6.9-6.9 14.6-12.8 22.8-17.7-.1-.2-.2-.4-.2-.6.4-.1.6.1.6.3 4.5-2.6 9.2-4.9 14-6.9 0-.3 0-.5.4-.8-.2-.7-.4-.1-1.1-.2.1-.4 0-.6-.1-.8-5 2.1-9.8 4.4-14.4 7.2.2.3.3.7.4 1-.6.1-.8-.3-1.2-.6-4.2 2.5-8.3 5.3-12.1 8.3.4 0 .8.1.7.6-.4.4-1.1.3-1.1-.3-.5.4-1 .8-1.4 1.2v.2c-.2 0-.3 0-.4.1-.4.3-.8.7-1.2 1 .3 0 .4.2.7.2.1.7-.4.7-1.1.6 0-.3.2-.4.2-.7-19.8 17-33.9 40.6-38.8 67.5v.1c-1.2 6.7-1.8 13.6-1.8 20.6 0 18.9 4.5 36.7 12.6 52.5 0-.5.1-.9.4-1 .6.2.7.8.8 1.5-.4 0-.9 0-1.1-.1 19.2 37.3 58 62.8 102.8 62.8 25.8 0 49.6-8.5 68.9-22.8.1-.1.1-.2.2-.3h.3c28.1-21.1 46.2-54.6 46.2-92.4-.1-4.5-.3-8.8-.8-12.9zM99.6 20.3v-.6c.7-.3.7.9 0 .6zm5.1-1.1v-.4c.5-.1.4.3.4.6-.2 0-.2-.2-.4-.2zm9.9-2.3h-.6c-.1-.3.2-.4.2-.6h.4v.6zm5.7-.8v-.4c.4-.1.7 0 .6.4h-.6zm16 0c-.1-.4.1-.6.2-.8.3.1.3.4.6.4 0 .3-.4.4-.8.4zm2.5.2c.7-.2.5.3.8.4-.1.5-1.2.3-.8-.4zm16.2 3.2h-.4v-.6h.6c.1.3-.2.3-.2.6zm13.7 3.1c-.5.1-.9-.1-.8-.6.2 0 .2-.1.2-.2.5-.1.6.3.6.8zm16.8 7.8c.1-.3.4-.2.4 0-.1.1-.3.2-.4 0zm1.3 1c.1-.3.4-.2.4 0-.2.2-.4.3-.4 0zm5.2 3.4h-.4v-.4h.4v.4zm8.5 4.6c.7-.5-.5.7 0 0zm6.1 5.9c-.5.3-.8-.5-.8 0-.5-.3.2-1 .8-.8v.8zm14.3 16.2c-.1 0-.5-.3-.4-.4.2-.8.9.2.4.4zm3.1 2.7c0-.2.3-.2.4-.2 0 .2-.2.2-.4.2zm3.6 5.3c-.5 0-.7-.2-.6-.6h.6v.6zM76.5 29.3c.1.1-.2.3-.2.2-.1-.1.1-.2.2-.2zM54.6 44.1c.1-.3.6-.2.6 0 .2.4-.7.4-.6 0zm-28 36.1c.4-.1.7 0 .6.4h-.6v-.4zm-2.9 8c-.1.3-.4.2-.4 0 0-.3.1 0 .4 0zm1.6 87.3c-.6.1-.9-.1-.8-.6.6-.1 1.1-.1.8.6zm15.6 25.9h-.4v-.4h.4v.4zm10.8 11.3c0-.2.2-.1.2 0-.1.3-.2.1-.2 0zm36.4 24.4h-.4v-.4h.4v.4zm1.9.2c.7-.5-.6.7 0 0zm9.6 3.8c.1-.3.4-.2.4 0 0 .3-.1 0-.4 0zm23.2 4.4v-.8h.8c.1.6-.1.9-.8.8zm30.7-3.1c-.1-.1.2-.3.2-.2.1.1-.1.2-.2.2zm13.7-4c0-.2.3-.2.4-.2 0 .2-.2.1-.4.2zm66.5-58.5c-.1-.1.2-.3.2-.2.1.1-.1.3-.2.2zm8.6-20.8c-.2 0-.2-.4-.2-.6.4-.1.4.2.4.4-.1-.1-.1.1-.2.2z"/><path class="st0" d="M88.5 23.4c.1.4-.6.9.2 1.1 0 .4-.2.5-.4.6.2-.1.4-.2.6-.2-.1-.1.2-.3.2-.2.1.1 0 .1 0 .2 1.6-.6 3.2-1.2 4.8-1.7-.1-.3 0-.7-.1-.9-.2-.5-.7-.3-.7-.9-1.7.6-3.3 1.2-5 1.8.1.1.4.1.4.2zm4-1.2h.8c.1.7-.4.8-.8.8v-.8zm-2.8.6c.3.2.3.7.4 1.1-.4-.1-.4-.6-.4-1.1z"/></g><g><path class="st0" d="M149.8 63.2c.2 0 .3.1.5.1-.2 0-.3-.1-.5-.1z"/><path class="st0" d="M55.7 147.9c.2.1.3.2.6.2.1.5 0 .8-.2 1-.1 0-.2 0-.3-.1 1 4.2 2.4 8.3 4.1 12.1.1-.1.2 0 .2.1s0 .1-.1.1c3.5 7.9 8.2 15.1 14 21.4.1 0 .2 0 .3.2l-.1.1c.6.7 1.3 1.3 1.9 2 .1-.1.2-.2.3-.4.5.1.5.6.3.9 4.8 4.7 10.2 8.8 16.2 12.1.3-.2.2-.1.1.1 8 4.5 16.8 7.6 26.2 9v-.4h.4v.4h-.4c3.5.5 7.1.8 10.8.8 0-.2-.1-.3-.2-.6.3-.2.6-.3.8-.6.6-.2.3.7 1.1.4 0 .3 0 .6-.1.8 1.6 0 3.3-.1 4.9-.2.1-.5.6-.7.9-1 .2-.2 0-.9.6-.6.1.7-.4.7-.6 1.1 0 .2.1.4.1.5 24.6-2.2 45.9-16 58.4-35.9v-.4h.3c7.3-11.8 11.5-25.6 11.5-40.5 0-35.1-23.6-64.7-55.7-74l.1.1c-.1.3-.2 0-.4 0 0-.1.1-.2.2-.2-.2-.1-.4-.1-.6-.2 0 .1-.2.2-.2.1-.1-.1 0-.1.1-.2-6.5-1.8-13.4-2.8-20.5-2.8-11.1 0-21.6 2.4-31.2 6.6-.1.3-.1.7-.6.5v-.3c-2.5 1.1-5 2.4-7.3 3.8.1.1.2.2.2.5-.4.1-.6 0-.6-.2l-1.5.9c.5.2 1 .9.6 1.4-.7.1-1.1-.6-1-1.1-.3.2-.5.3-.8.5.4 0 .6.2.5.6h-.6v-.6c-.2.1-.3.2-.5.3h.3c.1.7-.5.8-.8.4v-.1c-.7.5-1.4 1-2.2 1.5.5 0 .5.4.9.5-.1.7-1.2.5-1.1-.3-.3.2-.5.4-.8.6.2.2.2.4.6.3 0 .5-.3.7-.4 1.1-.2 0-.1-.2 0-.2.1-.6-.5-.5-.6-.8-6 4.6-11.2 10-15.6 16.2h.7v.8c-.6.1-.9-.1-.8-.6-1.4 1.9-2.6 3.9-3.8 5.9.1.5-.1.8-.5.8-.3.5-.5.9-.8 1.4 0 .1 0 .1-.1.2-5.9 10.9-9.2 23.3-9.2 36.4 0 6 .7 11.8 2 17.5-.1.2-.1.2 0 .1zm9.8 18.8c-.3-.2 0-1-.6-.8 0-.4.3-.4.2-.8.4-.2.3.3.4.4.2.3.6.3.8.6.1.5-.4.5-.8.6zm1.7-1.9c-.1-.1.2-.3.2-.2.1.1-.1.2-.2.2zm1.7 7.3c0-.2.2-.1.2 0 0 .3-.2.1-.2 0zm3 4.9c0-.2.3-.2.4-.2 0 .2-.3.1-.4.2zm.8-3.2c-.1-.1.2-.3.2-.2.1.1-.1.3-.2.2zm10.7 11.4c-.1-.1.2-.3.2-.2.2.1-.1.2-.2.2zm5.1 4.4c-.1-.9.2-1.5 1.3-1.3.1 1-.4 1.4-1.3 1.3zm4.6 7.3c-.5 0-.1-.7 0-.8.5 0 .1.7 0 .8zm15.8 3.2c-.9-.1-.1-1.3.4-.6-.1.2-.3.3-.4.6zm1.3-1.7v-.6c.6-.3.6.9 0 .6zm10.5 2.5c0-.2.2-.1.2 0 0 .3-.2.2-.2 0zm2.1 2.6c-.5 0-.7-.2-.6-.6h.6v.6zm8-.9c-.9-.3-1.2 0-2.1.2v-.8c.9 0 1.5-.3 2.1-.6.6.4-.6.6 0 1.2zm-1.9-1.2c.1.1-.2.3-.2.2-.1-.1.1-.3.2-.2zm.4 0v-.6h.6c.1.3-.2.4-.2.6h-.4zm2.8 2.3c-.4.1-.2.8-.8.6-.5-1.7 1.6-1.9 1.5-.4-.4.2-.6.2-.7-.2zm-.5-1.3c.1-.5.6-.5.8-.2 0 .3-.5.2-.8.2zm2.3 5.1h-.4v-.4h.4v.4zm0-5.1c-.8.2-.4-1.1-.2-1.3.3-.1.4.2.6.2 0 .4 0 .9-.4 1.1zm.9 3.8c.7-.5-.5.7 0 0zm.2-.4c-.1-.1.2-.3.2-.2.1.1-.1.2-.2.2zm1.1-4.2c0-.2.3-.2.4-.2 0 .2-.3.1-.4.2zm2.5 5.4h-.4v-.4h.4v.4zm6.5-1.4v-.4c.4-.1.7 0 .6.4h-.6zm2.7-4.9c-.2-.2-.2-.5-.2-.8.2-.2.6-.3 1.1-.2 0 .7-.3 1-.9 1zm58.3-68.1c.3.1.4.4.4.8-.5.3-.4.4-1.1.2-.1-.7.6-.6.7-1zm-1.2 9.9c-.1 0-.5-.3-.4-.4.2-.8.9.2.4.4zm-1.1-15.2h.4v.4h-.4v-.4zm-1.4-7.5c0 .2-.2.1-.2 0 0-.3.2-.2.2 0zm-1.7-14.5c.4.1.4.3.2.6h-.4c-.1-.4.2-.4.2-.6zm-2.1 4.8c0 .2-.3.2-.4.2-.1-.2.2-.2.4-.2zm-1.1-11.8c-.1.3-.4.2-.4 0 .1-.3.2 0 .4 0zm-2.9.4h.4v.4h-.4v-.4zm-4.5-12c0 .2-.3.2-.4.2 0-.1.3-.1.4-.2zm-.6-3.5c.7-.5-.5.7 0 0zm-.2-.9c0 .5-.4.6-.2 1.3-.7 0-.7-.5-.8-1.1.2-.1.5-.2 1-.2zm-1.3 3.6c.1.1-.2.3-.2.2-.1-.1.2-.3.2-.2zm-1.4-3.8h.4c.1.3-.2.4-.2.6h-.4c-.1-.3.2-.3.2-.6zm-3-5.2c.4-.1.4 1.2-.2.8 0-.4.3-.4.2-.8zm-8.8-4.7c.7-.1 1 .2 1.1.8-.4.1-.4.6-1.1.4-.4-.3-.1-.7 0-1.2zm0 3.4c0 .2-.2.1-.2 0 0-.2.2-.1.2 0zm-7.4-11.8c.2-.2.5-.2.8-.2v.6c-.3 0-1 .3-.8-.4zm-6.7-2.7h.6c.1.6-.1.9-.6.8v-.8zm-3.2 1.3h.4v.4h-.4v-.4zm.2 1.4v.6c-.4.1-.6-.1-.8-.2 0-.3.4-.4.8-.4zm-2.5-5c0 .2-.2.1-.2 0 0-.3.2-.1.2 0zm-2.7-.9h.4v.4h-.4v-.4zm0 3.6c.1.1-.2.3-.2.2-.1-.1.1-.2.2-.2zM151 59c-.2 0-.2.1-.2.2-.2 0-.2-.4-.2-.6.3-.1.4.1.4.4zm-1.1-1.1h.4v.4h-.4v-.4zm-4.6-.8c.3-.1.4.2.6.2-.2.2-.2.5-.2.8-.5 0-.8-.6-.4-1zm-21-1.3c.6-.3.6.9 0 .6v-.6zm-3.8 3.6c.5-.1.3.4.6.4-.1.6-.8 0-.6-.4zm-4 .4c.1.5 0 .8-.2 1.1h-.8c-.2-.8.4-1 1-1.1zm-1.9-3.5h.6v.6h-.6v-.6zm-4.9 1.6c0 .2-.3.2-.4.2 0-.2.3-.1.4-.2zm-1.4 5.3h.4v.4h-.4v-.4zm-1.3-2.3v.4c-1 .2-.4-1.1 0-.4zm-4.6 1.7c.5.1.5.6.2.8-.5-.1-.5-.6-.2-.8zm-.4-3v.6c-.4.1-.6-.1-.8-.2 0-.3.3-.4.8-.4zm-2.2.6c.6-.1.7.3.6.8h-.8c0-.3.2-.5.2-.8zm-.2 1.5c.3-.1.4.2.6.2.1.7-.2 1-.8 1.1.3-.6-.1-.7.2-1.3zm-2.5 4.6c.1.5-.1.9-.6.8-.1-.5.1-.8.6-.8zm-5.2 2.4c-1 .2-1.3-.4-1.5-1.1.4-.2 1.6.1 1.5 1.1zm-4.7 2.5c.7-.1.8.7.4 1.1-.4-.1-.4-.6-.4-1.1zM84.5 75h-.6v-.4c.4-.1.6 0 .6.4zm-.6-1.3c-.5 0-.8-.3-.8-.8.3-.4 1 0 .8.8zm-1.3.6c.6-.7.7.7 0 0zm-1.1-.2h.6v.8c-.6.3-.6-.2-.6-.8zM66.2 100c.1.7-.5.8-.8.4 0-.4.3-.5.8-.4zm-3 6.7h.6v.6h-.6v-.6zm0 4h.2c2.5-8.5 6.6-16.4 12-23.2-.2 0-.5-.2-.6-.5 0-.5.7-.1 1.1-.2v.2c12.9-16.1 32.6-26.4 54.7-26.4 6.6 0 13.1.9 19.1 2.7.1-.9-.3-1 0-1.7h1.1c-.1.5-.1 1.1.6.8.1.6-.4.7-.4 1.2 28.7 8.8 49.7 35.5 49.7 67v2.2h-.1c-.1 3.1-.4 6.1-.9 9h.1v.4h-.1c-4.7 27.9-25.9 50.2-53.2 56.6h.3v.6h-.6v-.6c-3.8.9-7.8 1.4-11.8 1.7v.2c-.3.1-.5 0-.5-.1-1.1 0-2.2.1-3.3.1-38.6 0-70.1-31.4-70.1-70.1 0-6.7 1-13.2 2.7-19.4v-.5zm-2.1-5c.7-.1.9.2.8.8-.6.1-.9-.2-.8-.8zm-.4 12.4c.1.1-.2.3-.2.2-.1-.1.1-.3.2-.2zm0 1.7c-.1.3-.3.4-.6.4-.1-.5.3-.4.6-.4zm-2.7 33c-.4 0-.4.3-.8.2-.1-.2-.2-.3-.2-.6.2-.4 1.1-.3 1 .4zM130.6 207.5v.2h.3c-.1-.1-.1-.2-.3-.2z"/></g><path class="st0" d="M133.8 80.5c-.5 0-.9-.2-.9-.7h.6l-3-6-1.7 3.3c.2.1.3.3.3.6-.2 0-.4 0-.5-.1l-.2.3v.4h-.2l-1.1 2.2-2.8.4c.7.8.3 1.8-.5 2.4-.7-.1-1.3-.3-1.7.4-.5 0-.4-.7-.4-1.3.9 0 1-.3 1.5.2.6-.3-.4-.7-.2-1.3.4-.5.7 0 1.1.2.4-.1-.1-.4-.2-.7l-4.1.6 3.2 3.1c.1-.1.1-.2.1-.5.4-.1.6.1.8.2v.6c-.1.1-.2.2-.4.2l.6.6c.1-1.2 1.1-1.1.6-2.5.6.2 1.1.5 1.3 1.1.1.4-.3.4-.6.4 0 .4-.1.7-.4.8.2.4.5.7.8 1.1-.7.9-.6 1.2-.6 2.7-.1.1-.3.2-.5.2l-.8 4.6 6.7-3.5 6.7 3.5-.4-2.1c-.1.1-.3.1-.5.1 0-.6.1-1.2.3-1.6l-.1-.6c-.3-.1-.7.2-1-.3.1-.3.5-.5.9-.5l-.4-2.3 5.4-5.3-7.7-.9zm-7 2.9c.4-.1.6.1.8.2-.1.4-.4.5-.8.4v-.6zm-.2 5.7c-.9 0-.6-.5-.4-.8 0-.1-.1-.4 0-.4 0 0 .4.1.4 0 .1-.2-.5-.5 0-.8.4-.1.6.1.8.2 0 .5-.2.7-.6.6 0 .4 0 .9-.2 1.2zm1.5-.5c-2.1-.3.9-1.8 0 0zm1.2-11.3c.5.2 1.2 2.2-.2 1.9-.2-.9.3-1.1.2-1.9zm1.7 10.9v-.6c.6-.3.6.9 0 .6zm-.2-5.7c-.4.1.3.7.4.8.1.5-.4.4-.4.8-.1.4.3.7.2 1.1 0 0-.6.3-.6.4 0 .3.6.1.6.4.2.8-1 .3-1.5.4.2-1-.3-1.2-.4-1.9.3-.2.4-.6 1.1-.4-.2-.5-.6-.6-1.1-.8.6-.3 1.5-1.8.2-2.1 0-.7.5-.9 1.3-.8.5.5 0 1.2 0 1.9.5-.1.1-1 .8-.8.2.6-.4 1.5-.6 1zm1.7-1.6c-.5-.1-.5-.6-.2-.8.5 0 .4.5.2.8zm0-2.4c.4.2.9.6.4 1.1-.7.1-.8-.7-.4-1.1zm.6 3.8h-.4v-.4h.4v.4zm.8 3.8c-.2-.7.3-.6.4-1.1.6-.1.5.4.6.8-.1.3-.5.4-1 .3zm1.1-2.9c.3.1.4.3.4.6-.7.2-.7-.3-.4-.6zM150 86.7l-2.1-4.2-2.1 4.2-4.6.7 3.3 3.2-.8 4.6 4.1-2.2 4.1 2.2-.2-.9c-.4-.1-.5-.4-.4-.8.1 0 .2 0 .3.1l-.5-3 3.3-3.2-4.4-.7zm-5.7 1.1v-.6c.6-.3.6.9 0 .6zm.4 2.9c.3-.8-.2-1 .2-1.7.4.4.8 1.6-.2 1.7zm7.6-3.3c-.1-.1.2-.3.2-.2.1.1-.2.2-.2.2zM137.2 178.3c-.1.1-.3.2-.5.1-.3-.3-.1-.3 0-.6l-.8-.8 1.3-7.4-6.7 3.5-6.7-3.5 1.3 7.4-5.4 5.3 7.4 1.1 3.3 6.7 3.3-6.7 3.3-.5c0-.1.1-.2.2-.3.3-.1.4 0 .5.2l3.4-.5-3.9-4zm-10 .3h-.4v-.4h.4v.4zm.6-6.3c0-.2.2-.1.2 0 0 .3-.2.2-.2 0zm2.4 2.4c.1-.3.4-.2.4 0-.2.1-.4.2-.4 0zm2.7 4.6h-.4v-.4h.4v.4zm2.1 2.5v-.4c.5-.1.4.3.4.6-.1 0-.2-.2-.4-.2zm-.4-6.7c-.2-.7-.1-.6.2-1.1.2.1.3.2.6.2.1.7-.2 1-.8.9zM119.7 176.6c-.1-.1-.1-.1 0 0-.2-.1-.2-.1-.2-.2l-3.1-3 .8-4.6-4.1 2.2-.6-.3c-.1 0-.1.1-.2 0v-.1l-3.3-1.7.8 4.6-3.3 3.2 4.6.7 2.1 4.2 2.1-4.2 4.4-.8zm-11-1.3c-.1-.1.2-.3.2-.2.1.1-.2.2-.2.2zm1 .6h-.4c-.1-.3.2-.4.2-.6.5.1.5.3.2.6zm1.9-2.7h-.4v-.4h.4v.4z"/><g><path class="st0" d="M117.3 259.2c-.2-.2-.2-.5-.2-.8 1.1.1 2.4.2 3.4.4.1.4-.3.4-.6.4 0 .6.4 1.1.1 1.6 3.5.3 7.1.4 10.7.4 1.5 0 3 0 4.6-.1h.1c39.2-1.4 74-20.1 97.1-48.7.2-1 .4-2 1.6-2 2.1-2.7 4-5.4 5.9-8.2h-.1c-.4-.7-.1-1.2.4-1.5.2.1.3.2.5.3 2.9-4.6 5.6-9.3 8-14.3v-.8h.4c7.9-16.8 12.4-35.6 12.4-55.4 0-7.6-.6-15-1.9-22.2-.2.2-.5.3-.9.2-.1-1 .1-1.6.4-2.1h.2c0-.2-.1-.4-.1-.5-.2.1-.5.2-.5.5-.8-.1-.3-1.1.3-1.3-.1-.3-.1-.6-.2-.9-.3.1-.6.1-1 0-.9-.8-.3-1.9.6-2.1-.1-.4-.2-.8-.3-1.3h-1.5c0-1 .4-1.6 1.1-2-.2-.7-.4-1.5-.6-2.2-.8-3-1.7-5.9-2.7-8.8-.3.2-.6.4-1.1.4-.4-2-2-.4-3.8-1.3-.2-.9.6-.8 1.3-.8-.3-1.5.3-2.2.8-2.9.9.3.9.6 1.4.6-.2-.6-.5-1.2-.7-1.8-1 .3-1.8.8-1.9 2-1 .2-.9-.8-2.1-.4-.2-1.3.6-1.6.8-2.5 1.9 1.2.7-1 1.7-1.7.1-.1.3-.1.4-.1-1.8-4.3-3.9-8.5-6.2-12.6-.1.1-.2.1-.3.1-.1-.3 0-.4.1-.5-.3-.6-.7-1.2-1-1.8h-.1c.1.5.1 1.1-.6.8-.1-.5.1-.9.6-.8-.1-.1-.2-.2-.1-.4-.2-.3-.3-.6-.5-.9v1c-.9.1-1.3-.2-1.3-1.1.2-.2.7-.2 1.1-.2-.1-.2-.2-.3-.3-.5v.1c0 .2-.2.1-.2 0 0-.2.1-.2.2-.1-.2-.2-.3-.5-.5-.7-.3.9-.3 2-1.4 2.1.2.5.7.7.6 1.5-.9.2-2 .2-2.1 1.3-.5.1-.5-.4-1.1-.2-.1-.7.3-.8.4-1.3 1 .6.3-.5.8-.8.6-.3.6.9.2.8.1.5.6-.2.8-.2 0-.7-.6-.8-.4-1.7.6-.2.4.4.8.4-.1-.4.3-1.4-.2-1.5.5-.1.8-.7 1.2-.7-.4-.6-.8-1.3-1.2-1.9v.1h-.4v-.4h.2c-2.3-3.4-4.7-6.8-7.2-10-.1.2-.3.3-.4.5-.9-.2-1-1-.2-1.2-11-13.7-24.8-25.1-40.4-33.4-.1.8-.8 1.1-1.7 1.2 0-.7 0-1.5.1-2-7.8-4-16-7.3-24.6-9.7.1.6 0 1.3 0 2-2-.7-1.1.6-3.4.4-.1-1.1.3-1.8.9-2.3v-.2c.1-.1.3-.2.5-.2.1-.1.2-.1.3-.2-.6-.2-1.1-.3-1.7-.5 0 .4.1.8.3 1.5-.7 0-1.4-.5-1.9 0 .1.6.4-.2.8 0 .1.5-.1.9-.6.8-.1.7.7.6.2 1.1-1.1 0-1.4-.9-1.4-2.1.6 0 .8-.7 1-1.4-.7-.2-1.5-.3-2.2-.5v.2h-.4v-.3c-.3-.1-.6-.1-.9-.2V3h-1.1v-.5l-3.6-.6c-.2.2-.5.3-1.1.2-.1-.1-.2-.3-.3-.5C146 .7 140.5.2 134.9 0v.2h-.4V0c-1.3 0-2.7-.1-4-.1-8.7 0-17.2.9-25.5 2.5v.3c-.2.2-.6.1-.6.4-.2 0-.4-.1-.4-.4-3.9.8-7.8 1.8-11.6 3-.1.2-.3.3-.3.7h-.8v-.3c-6.6 2.1-13 4.7-19.2 7.8-.1.5-.4.8-.4 1.4 0 .9.6 1.2.2 1.9-1.3.3-1.4-1.5-.8-1.9-.1-.2-.2-.4-.3-.7-10.2 5.3-19.6 11.9-28 19.6.2 0 .4-.1.6 0 .2.9-.3 1.1-.4 1.7-.7 0-.9-.6-.7-1.1-10.3 9.5-19.1 20.7-26 33.1.4 0 .6.2.6.6h-.6v-.6c-.2.3-.3.6-.5.8.1 0 .2 0 .3.2-.1.3-.2.1-.3 0C9 80.9 4.4 94.1 2 108.1c0 .1.1.2 0 .3l-.1.1C.6 115.7 0 123.1 0 130.6c0 1.7 0 3.3.1 5 .2-.2.6-.3 1-.3.1.9-.4 1.3-1 1.1.5 11.8 2.6 23.2 6.1 34 .1-.1.1-.2.2-.4.7-.1.9.2.8.8-.4.4-.4 0-.9 0 1.4 4.2 3 8.4 4.7 12.4.3 0 .6.1.8.2v.6c-.1.1-.2.1-.3.2 1.7 3.7 3.5 7.3 5.6 10.9v-.3h1.3c.1.7-.4.7-.4 1.3h-.3C29.9 217.2 48 234.5 69.6 246c.4-.2.8-.3 1.4-.3v1c8.4 4.3 17.4 7.8 26.7 10.2v-.1c.2.1.3.1.3.2 3.1.8 6.2 1.5 9.3 2 0 0 0-.1.1-.1.2 0 .3.1.3.2 3.8.7 7.6 1.2 11.5 1.5-.7-.3-1-1.2-1.9-1.4zm143.1-137.3c-.2 0-.2.1-.2.2-.2 0-.2-.4-.2-.6.4-.1.4.1.4.4zm-1.6 4.4c.3.1.4.3.4.6-.7.2-.7-.3-.4-.6zm.2 17.4c-.1-.1.2-.3.2-.2.1.1-.2.3-.2.2zm-.2-20.2h.4c.1.3-.2.4-.2.6h-.4c-.1-.3.2-.3.2-.6zM240 60.9h.6v.6h-.6v-.6zm-.8-.9c.4-.1.7 0 .6.4h-.6V60zM133.9 253.7c-.5 0-.6-.4-1.3-.2 0-.8.5-1 1.3-1.1-.2.7 0 .5 0 1.3zm2.6-4.2h.8c.3.7-1.2 1-.8 0zm4 8.2c-.6 0-.6-1.3.2-1.1.1.6 0 .9-.2 1.1zm2.7-.4h-.4v-.6c.3-.1.4.2.6.2 0 .1-.2.2-.2.4zm17.1-4.2c.4.2.7.4.6 1.1-.9.2-1.1-.7-.6-1.1zm5.2-6.3h-.4v-.4h.4v.4zm.7-1.1h-.4v-.4h.4v.4zm9.4.5c.7-.6-.5.7 0 0zm2.3 1.4c0-.2.2-.1.2 0 0 .3-.2.1-.2 0zm2.1-5.2c-.4.6-1.3-.3 0 0zm9.7 3.1c-.6 0-.4.4-.8 0v-.4c.4-.4.3 0 .8 0v.4zm-.8-1.2c0-.7.4-.9.2-1.7.5 0 .7.3.8.6.1.8-.3 1.1-1 1.1zm0-9.5c0-.6 1-.5.8.2-.4.4-.4-.1-.8-.2zm1.2 4.8c-.4-.4 0-.3 0-.8.9-.2.9 1 0 .8zm.5-4.8c1.2.3-.8 1 0 0zm-.5 10.9v-.4c.4-.1.7 0 .6.4h-.6zm.7-1.2h-.6v-.8c.5-.1.6.2.6.8zm-.4-1.5v-.8c.5-.1.9.1.8.6-.2.2-.5.2-.8.2zm2.1.2h-.6v-.6h.6v.6zm-.5-1c-.1-.5 0-.8.2-1.1 1-.2.8 1.4-.2 1.1zm1.5-3.6c.1-.3.4-.2.4 0-.1.3-.1 0-.4 0zm.2-4.4c.1.1-.2.3-.2.2-.1-.1.2-.3.2-.2zm7.4-6.6c0-.2.2-.1.2 0 0 .3-.2.2-.2 0zm.8 6.8c-.1-.1.2-.3.2-.2.2.1-.1.2-.2.2zm5.9-10.7h-.4v-.4h.4v.4zm4.7-5.3h-.4v-.4h.4v.4zm2.9.4c.1-.3.3-.4.6-.4-.1.3-.2.4-.6.4zm3.2 4.2c0-.2.4-.2.6-.2 0 .3-.4.2-.6.2zm5-10.1h-.4v-.4h.4v.4zm.2-5.4c.1-.3.4-.2.4 0 0 .3-.1-.1-.4 0zm1.3-4.2c.1-.5.4-.2.4 0-.1.4-.4.2-.4 0zm7.1-.3h-.4v-.6c.3-.1.4.2.6.2 0 .2-.2.2-.2.4zm0-10.7c.4.3 1.5-.1 1.3.8-.4.1-.4-.2-.4-.4-.2 0-.2.4-.2.6-.9.3-1.1-.6-.7-1zm1.3 2.5v.4h-.4v-.4h.4zm-.4 9.1c-.2 0-.2-.4-.2-.6.4-.1.4.2.4.4-.2-.1-.2.1-.2.2zm.4-1.7h-.4v-.4h.4v.4zm-.2-3.6v-1.1h.6c.1.7.1 1.2-.6 1.1zm.8-8.2c-1 .2-.4-1.1 0-.4v.4zm.9 12.2h-.4v-.4h.4v.4zm1.7-1.9c-.4.1-.6-.1-.8-.2.1-.4.4-.5.8-.4v.6zm0-2.9h-.6c-.1-.4.1-.6.2-.8.3 0 .4.3.4.8zm.8-.9c-.7 0-2-1.3-.6-1.5-.3 1.1.9.6.6 1.5zm-.8-1.8c.3-.4 1.5-1.5 1.5 0-.3.3-1.3.3-1.5 0zm1.4 6.5c.8.6-.6.7 0 0zm.5-19.6c-.5 0-.4-.7-.4-1.3.6 0 .7 1 .4 1.3zm3.3 8.2c0-.2.2-.1.2 0 0 .3-.2.1-.2 0zm3.2-23.1c-.4-.6-.1-.6-1.1-.4-.1-.4.1-.6.2-.8.7 0 1.4.6.9 1.2zm.2 6.7c-.2-.9.6-.8 1.3-.8-.2.5-.6.8-1.3.8zm.6-8.2c-.2-.2-.3-.6-.2-1.1.5 0 .7-.4 1.1 0-.2.6-.2 1.1-.9 1.1zm.4 3.4c.3.1.4.3.4.6-.7.2-.7-.3-.4-.6zm.7 6.1h-.4v-.4h.4v.4zm0-6.5h-.4v-.4h.4v.4zm.6-11v.4c-1 .2-.4-1.1 0-.4zm-.4 14.1c.6-.1.9.1.8.6-.4.5-1 .2-.8-.6zm1-2.3c-.7.2-.7-.3-.4-.6.3.1.4.2.4.6zm-.2-15.6v-.4h.4v.4h-.4zm-.8 28.2c0-.2.2-.1.2 0 0 .3-.2.1-.2 0zm.2-7.3c-.1-.5 0-.8.2-1.1.4.2.7.4.6 1.1h-.8zm.6-4.7c.3.1.4.3.4.6-.7.2-.7-.3-.4-.6zm.7 12.4c0-.2.2-.1.2 0-.1.3-.2.2-.2 0zm-.4-23.7c.6-1.9.7-.6 0-2.9 1.2.4 1.5 1.6 1.7 2.9h-1.7zm.1-12c1.2-.6 1.3.8.2.8-.1-.2-.2-.5-.2-.8zm3 0c-.1-.1.2-.3.2-.2.1.1-.1.2-.2.2zm.2 1.5c0 .2-.3.2-.4.2 0-.2.2-.2.4-.2zm-.8-9.5c-.2-.7.3-.7.4-1.1.7-.1.7.5.6 1.1h-1zm-.9-30.9c-.1-1.1.9-1.1 1.7-1.3 0 1.1-.9 2-1.7 1.3zm.7 4.4v.8c-.6.1-.7-.3-.6-.8h.6zm-.2-.6c.2.2-.3.5-.4.4-.3-.2.3-.6.4-.4zm-.3 10.3c-.2 0-.2-.4-.2-.6.4-.1.4.2.4.4-.1-.1-.2 0-.2.2zm.3 43.5c-.2-.2.3-.5.4-.4.2.2-.3.5-.4.4zm.2 3.8h.4v.4h-.4v-.4zm.2 4.2v-1.7h1.7c.2 1.3-.4 1.9-1.7 1.7zm.4-10.5c.3-1.2-.6-1.1-.4-2.1.5-.6 2-.6 2.5 0 .3 1.6-.9 1.8-2.1 2.1zm2.1 3.8c.2-.2.6-.3 1.1-.2.3.9-1.3 1.1-1.1.2zm.8-27.4c-.1-.4.3-.4.6-.4 0 .3-.2.4-.6.4zM256 153h.6c.1.3-.2.4-.2.6h-.4v-.6zm-1.4-48.6c.4.1.4-.2.4-.4.8-.2.6 1.9-.4 1.3v-.9zm-.7 16.8c.4-.2.3.3.4.4.3.3.9.2.6.8-.7.2-1.4-.6-1-1.2zm-.4 28c.7-.5-.5.7 0 0zm0 11.2c0 .2-.3.2-.4.2 0-.2.2-.2.4-.2zm-1.3-52c1-.2 1.1 1.1 0 .8v-.8zm-.2 8.8c-.7.1-1.2-.1-1.1-.8.3 0 .8.1.8-.2.8.1.4.6.3 1zm0-23.7c0 1.5.2 3.3-1.7 2.9-.5-.8.2-3 1.7-2.9zm-1-3.6c.1.5 0 .8-.2 1.1-.7.1-1-.2-1.1-.8.3-.3.8-.3 1.3-.3zm-1.5-1.9c.9.2.9.7.4 1.3h-.8c-.1-.7.4-.8.4-1.3zm-.8 2.1h.8c.2.9-.6.8-1.3.8.1-.3.5-.4.5-.8zm-.5 7.4c.1.1-.2.3-.2.2-.1-.1.2-.3.2-.2zm-.2-4s-.4-.7-.4-.6c.1-.6.7.3.4.6zm-.6-2.1c-.3 0-.6-.1-.9-.2 0 .1-.2.2-.2.2-.1-.1 0-.2.1-.2-1.2-.4-1.2-1.3-3.3-.6-.2-1.3.4-1.9 1.7-1.7 1.2-.3.8-2.3 2.5-2.1 0 1.6 1.2 3.3.1 4.6zm-1.2 8.8c-.2-.2.3-.5.4-.4.2.2-.3.5-.4.4zm-2.8-26.5c.2.8-.7.5-.4 1.5h-1.1c0-1 .9-1.2 1.5-1.5zm-1.3-1.3v-.6c.6-.3.6 1 0 .6zm1.3 3.6c.1.7-.2.9-.8.8-.7-.5.2-1.4.8-.8zm0 1.3c.1.5-.4.3-.4.6-.5-.1 0-.8.4-.6zm-.2.6c.6 0 .6 1.3-.2 1.1-.1-.5 0-.8.2-1.1zm3.8 3.8c-.3 1.2-1.3 1.8-.8 3.8-1.2.1-1.3-1-2.5-.8.4-1.7 1.2-3 3.3-3zm-1.3-1.3c.2.2-.3.5-.4.4-.2-.2.3-.5.4-.4zm.9-4.6c-.1-.3.2-.4.2-.6h.4v.6h-.6zm-3 6.3c.1-.5.4-.2.4 0 0 .5-.4.2-.4 0zm.6-8c-.5 0-.7-.2-.6-.6h.6v.6zm-.6 12.6c-.1.5-.4.2-.4 0 .1-.4.4-.2.4 0zm4.7-9.6c-.4-.1-.4.2-.4.4-.5-.1-.4-.8-.4-1.3.6-.1.7.3.8.9zm-1.7 8.4c0-.4.5-.3.8-.4 0 .4-.5.3-.8.4zm.4-12.8h.4v.4h-.4v-.4zm-.7.4c.5 0 .7.2.6.6h-.6v-.6zm-.6-.2c0 .2-.2.1-.2 0 0-.3.2-.1.2 0zm.2 2.1c0 .7 0 1.4-.8 1.3 0-.4.3-.4.2-.8-.1-.2-.5-.2-.4-.6.3-.5.6 0 1 .1zm-1.2-5.3c.2 0 .2-.1.2-.2.4-.1.3 1-.2.6v-.4zm0 1.9v.4h.3v1.3c-.9.1-1.3-.3-1.3-1.3h.2c0-.3.3-.5.8-.4zm-1.3-1.9c1.2.3-.8 1 0 0zm-.4 2.1c0-.5 0-1 .2-1.3.8-.1.5 1.6-.2 1.3zm-1.3-4.8c.7.2.5.6.8-.2.7.1.4 1.1-.4.8.1.4.9.1 1.1.4v.8c-.4-.1-.4.2-.4.4-.4 0-.5-.4-.6 0 .2 0 .2.3.2.4-.2 0-.2-.3-.2-.4-.6-.1.2-.4 0-.8-.5-.2-1-.9-.5-1.4zm-.4 9.7c.4-.1.3 1-.2.6v-.4c.2 0 .2-.1.2-.2zm-2.3-8.9c-.1-.8.1-1.1.4-1.5.7.2.3.4 1.3.2-.1.4-.7 1.7.4 1.5 0 .5-.3.8-.8.8-.2-1-1-.2-1.9-.6-.2-.4.2-.4.6-.4zm-.2 10.7c-.1-.6.4-.5.8-.6 0 .6-.5 1-.8.6zm0 2.1c-.1-.1.2-.3.2-.2.1.1-.2.3-.2.2zm.2-7.7c-.3-.4.1-1.5.8-1.5 0 .8.1 1.6-.8 1.5zm-.4-4.2c.4.1.4.3.2.6h-.4c-.1-.3.1-.4.2-.6zm-.5 1h.4c.1.4-.3.4-.6.4.1-.1.2-.2.2-.4zm-.6.6c-1.1-.1-.8-.8-2.1-.4-.1-.7.2-.9.8-.8.6-.2.4-1.1 1.3-1.1-.1.8.5 1.7 0 2.3zm-.6 4.5c-.1-.1.2-.3.2-.2.1.1-.2.2-.2.2zm.2-7.4c0-.2.3-.2.4-.2 0 .2-.3.2-.4.2zm.8-4.2c-.2 0-.2.1-.2.2-.2 0-.2-.4-.2-.6.4-.1.4.1.4.4zm-.6-3.8h.4v.4h-.4v-.4zm-.6 5.5c.1.1-.2.3-.2.2-.2-.1.1-.3.2-.2zm-.5-4.2v.6c-.5 0-.7-.2-.6-.6h.6zm-.4 5c0 .2-.2.1-.2 0 0-.2.2-.1.2 0zm1.5-.2c-.1.6-.6.9-.4 1.9-.6.1-.6-.5-1.3-.4.3-.8.6-1.5 1.7-1.5zm-1.7 2.5c0 .2-.2.1-.2 0 0-.2.2-.1.2 0zm-.8-14.5h.6c.1.3-.2.4-.2.6h-.4v-.6zm-3.4 7.2h1.3V62c.2.5 1.6-.3 1.3 1.7h-2.1c-.5-.9-1.4-2.1-.5-3zm-1.3-5.7v.6c.1.3.8-.2.6.8h-1.1c-.2-.4-.7-1-.2-1.5.3.1.5.1.7.1zm-.2 6.1c-.5.5-1.3.1-1.3-.6.5-.4 1.4-.1 1.3.6zm-.6-5.9c-.1 1-1.1 1-1.7.4.1-1 1.2-1 1.7-.4zm-.8 4c-.3.1-.4-.2-.6-.2.1-.2.4-.1.4-.4.2 0 .1.4.2.6zm-.9-13.9h.4v.4h-.4v-.4zm.9 7c-.1.5-.6.5-.8.2 0-.5.5-.5.8-.2zm-2.4-8.9c.8.7-.6.7 0 0zm.5 2.1c.1.7-.2.9-.8.8-.2-.6.1-.9.8-.8zm-.3 2.3c-.7.1-.8-.3-1.3-.4.1-.3.3-.5.4-.8.9-.1.7.7.9 1.2zm-.8-6.1c.2 1.3-.4 1.9-1.7 1.7-.2-1.3.4-1.9 1.7-1.7zm-2.1 2.1c1.5-.1 1.3 1.5 1.7 2.5-.8.1-1.2-.1-1.6-.4 0 .1-.1.2-.1.4-.3 0-.4-.3-.4-.7-.1-.1-.2-.1-.4-.2.2-.5.6-1 .8-1.6zm1.3 14.3c-.1-.1.2-.3.2-.2.1.1-.2.3-.2.2zm-.9-10.7c-.1-.4-1 0-.6-.8h1.3c-.4.5.2 2-.8 1.9-.5-.5-.1-.7.1-1.1zm-.2 1.5c0 .2-.2.1-.2 0 0-.2.2-.1.2 0zm-1.3-.8c.1.1-.2.3-.2.2-.1-.1.2-.3.2-.2zm-1.8-9.3c1.3 0 1.1 2.5-.4 2.1-1-.9 0-1.4.4-2.1zm-.9 9.7c-.1.5-.4.2-.4 0h-.2c-.1-.4.1-.6.2-.8.6-.2.4.3.4.7v.1zm-.3-1.9h-.1V46c.2-.1.4 0 .4.2.2-.2.3-.4.4-.6-.2-.8-1.9 0-1.3-1.7h2.5c-.8 1 .4 4-1.7 3.8-.3-.5-.3-.8-.2-1.1zm.3-9.3c.1.6-.1.9-.6.8-.2-.5-.3-.8.6-.8zm-1.2 4.4c.7-.1.7.4 1.3.4-.2.3-.4.7-.4 1.3-.8-.1-1.1-.7-.9-1.7zm-1.3 5.1c.2.2-.3.5-.4.4-.2-.2.3-.5.4-.4zm-2.3-13.7v.8c-.5.1-.8 0-1.1-.2.2-.4.6-.5 1.1-.6zm-5.7-1.5c.2.1.3.2.6.2.2.8-.2 1-.8 1.1-.1-.5-.1-1 .2-1.3zm-1.1-1.2h.6v.6h-.6v-.6zm.2 3.1c.7-.5-.5.7 0 0zm-1-2.3c0 .2-.3.2-.4.2 0-.2.2-.1.4-.2zm-1.7-6.3h.4v.6h-.6c-.1-.3.2-.3.2-.6zm-.6 6.5v.6c-.5 0-.7-.2-.6-.6h.6zm.4 1.9c.1.3-.2.4-.2.6h-.4c-.1-.3.2-.4.2-.6h.4zm-2.9-10.1h.4v.4h-.4v-.4zm-1.7 1.9c.3.4 1.4 0 1.3.8-.4.4-1-.1-1.5-.2.1-.1.2-.3.2-.6zm-4.5 1.5c.6 0 .4.9.4 1.5-1-.4-.6.3-1.7.2 0-1.1.7-1.3 1.3-1.7zm-6.1-6.9h.4v.6h-.6c0-.3.2-.4.2-.6zm-.2 4c.1 0-.1.6 0 .6.2.1.3-.6.6-.4 0 .1.3.4.2.6-.1.1-.4.2-.4.2-.1.3.4 1.2-.6 1.1-.3-.3-.3-1 .2-1.1-.3-.8-.9 0-1.5-.4.4-.7 1.1-.9 1.5-.6zm-1-6c1.3-1.1-1.2 1.3 0 0zm-1.3 2.8c.4-.3 1.1-.3 1.1-1.1 1.1.3-.2 1.3 0 1.9h-.4c.2.6 0 1.1-.2 1.7h-.8c.2-1.6-.7-.1-1.1-.6.1-.9.4-2.6 1.4-1.9zm-.8-7.4c0 .4-.5.3-.8.4 0-.4.5-.3.8-.4zm-1.1 10.6c.1.6-.3.7-.8.6-.1-.6.3-.7.8-.6zm-2.1-8.7c.5 0 .5.8.2 1.1-.8.1-.7-.9-.2-1.1zm-1 3.6h-.8c-.1-.7.4-.7.4-1.3h.8c.1.7-.4.7-.4 1.3zm.2 4c-.7.2-.7-.3-.4-.6.2.1.4.2.4.6zm0-6.9c.1.5-.1.9-.6.8-.1-.5 0-.9.6-.8zm-1.3-3c.6-.3.6.9 0 .6v-.6zm.7.8v1.3c-.9.1-1.3-.3-1.3-1.3h1.3zm-2.2 7c-.4.1-.6-.1-.8-.2.1-.3.4-.3.4-.6.4 0 .5.3.4.8zm-1.4-6.3c.2-.2.6-.3 1.1-.2v1.1c-.8 0-1.3-.1-1.1-.9zm-.9-2.3c.5 0 .1.7.2 1.1-.8 0-.7-1-.2-1.1zm-.2 1.5c-.1-.1.2-.3.2-.2.1.1-.1.2-.2.2zm-7.8-7.2c.6 0 .7.8.4 1.1-.8 0-.5-.6-.4-1.1zm-.2 5.3c.2-.2.5-.2.8-.2v.6c-.3-.1-1 .2-.8-.4zm-2.1 5.6c.7-.5-.5.7 0 0zm-9-11.3h.8c.1.4-.1.6-.2.8-.6.1-.7-.3-.6-.8zm-.5 8.2c-.2.1-.4.3-.4 0 .1-.3.4-.2.4 0zm-3.5-4.2c0 .2-.2.1-.2 0 0-.3.2-.1.2 0zm-2.8 2.9c.7-.2.4.7.2.8-.6-.1-.2-.3-.2-.8zm-2.3-5.9h1.3v1.3h-1.3V6.8zm-2.1-1.3c-.1.5-.8.4-.8 0 .2-.6.3.1.8 0zm-2.5.7c.1.1-.2.3-.2.2-.1-.1.1-.3.2-.2zm-.4 5.2c-.4.3-.8.5-.8 0s.8-.4.8 0zm-1.7-1.6c.4-.1.7 0 .6.4h-.6v-.4zm-4.9-2.5c.6 0 .9.4.8 1.1h-1.1c0-.6.5-.6.3-1.1zm-6.1.6c.5-.3 1.3.4 1.3 1.3-.6.3-.5-.5-.6-.6-.2-.3-.9-.2-.7-.7zm.2 1.2c0 .2-.2.1-.2 0 .1-.2.2-.1.2 0zm-1.2-1.6c.3.1.5.3.8.4-.1.4-.3.8-1.1.6 0-.5.1-.8.3-1zm-.2 1.4c1.4-1-1 1.4 0 0zm-1.1-3.1c1.2.2.5 1 .6 2.1-.7-.3-1.4-1.5-.6-2.1zm-1.2 0c.4-.1.7 0 .6.4h-.6v-.4zm.6 3.5c-.4-.1-.4.2-.4.4-.5-.1-.4-.8-.4-1.3.7-.1.7.4.8.9zm-3.2.1c.4-.1.6.1.8.2-.2.3-.2.8-.8.6v-.8zm-1-4.2c.1.6-.1.9-.6.8-.1-.2-.2-.3-.2-.6.1-.2.4-.3.8-.2zm.2 1v.4h-.4v-.4h.4zm-1.5-.2c.9.1-.2 1.2 0 0zm-.2.8c.2.1.3.2.6.2-.1.8-.5 1.5-1.3 1.1-.1-.8.7-.6.7-1.3zm.4 3.2c0 .2-.3.2-.4.2 0-.2.3-.2.4-.2zM119.6.5c.1.1-.2.3-.2.2-.1-.1.2-.2.2-.2zM118 8.3h.6v.6h-.6v-.6zm-4.3-.8c-.9.2-1.6-.4-1.1-1.1.7.1.9.6 1.1 1.1zm0 2.5v.4h-.4V10h.4zm-1.4-1.7c-.1-.1.2-.3.2-.2.1.1-.2.3-.2.2zm-.5-6.3c.2.1.3.2.6.2-.2 1 .3 1.3.4 1.9-1.4.1 0-1.4-1.3-1.3 0-.4.3-.5.3-.8zm-.2 2.9c-.1.3-.2 0-.4 0 .1-.2.4-.2.4 0zm-.2-1.6c.1.5-.1.9-.6.8-.1-.6.1-.9.6-.8zm-1.9 1.5c.1-.4.6-.7 1.5-.5V6c-1.1.2-1.6-.5-1.5-1h-.1c-.1-.2 0-.2.1-.2zm.7 7.7v.4h-.4v-.4h.4zm-.7-1.2c-.8.2-1-.4-.6-.8.6-.2.5.3.6.8zm-.2-5.1c-.7.1-.8-.4-.8-.8.7-.2.8.3.8.8zm0 5.9c0 .4-.1.7-.4.8.1.5.5 1-.4.8.3-.3.2-.9-.2-1.1.1-.3.5-.4 1-.5zm-1.5-3.8c-.1.3-.2 0-.4 0 .1-.3.4-.2.4 0zM106.4 7c.7-.3-.8-.3-.4-1.1.5-.5.7.2 1.5 0 .9 1.4-1 2.8-1.9 1.7.4.1.7-1 .8-.6zm-4 .5c.1.8-.9.7-.8 0h.8zm-3.8 4.2c-.7.7-.7-.7 0 0zm-3.2-5.3c.9-.1 1.3.3 1.3 1.3h-1.3V6.4zm-3.8 8.2c.4.1.6.6.6 1.1-.6 0-1-.7-.6-1.1zm1.5 3c-.7 0-.8-.7-.8-1.5.9 0 1.2.7.8 1.5zm-1.7.4c-.1-.1.2-.3.2-.2.2.1-.1.2-.2.2zm0-7.4c0 .7-.4 1.1-.6 1.7-1.2-.5 0-.9-.2-1.9.4-.1.5.2.8.2zm-.4-.8c-.6.1-.9-.1-.8-.6.5-.1.9 0 .8.6zm-.4-2.3v.8h-.8c-.2-.2-.2-.5-.2-.8.3-.4.3.1 1 0zm-3.2 5.2c.6 0 .9.4 1.5.4.6-.3-.3-.8.2-1.1.6-.2.4.4.8.4 0 .6-.3.4-.8.6-.3.1-.2 1.1-.8 1.1 0 .7 1 .4.8 1.3-.2.2-.6.1-.6.4-.7-.1-.4-1.1-1.5-.8-.1-1.3.4-1.7.4-2.3zm-.6 4h.6v.6h-.6v-.6zm-1.9 3.6c.6-.3.6.9 0 .6v-.6zm-.6-11.4c.3.1.4.3.4.6-.7.3-.7-.3-.4-.6zm.2 3.4c-.1.3-.4.2-.4 0 .1-.3.2 0 .4 0zm-4 1.9c.8-.2.8 1 0 .8 0-.5-.4-.4 0-.8zm-2.7.6c-.6-.6.6.6 0 0zm-3 1.3c0 .4-.2.5-.4.6.2.5.5.9.4 1.7-.8-.2-1.3-.2-1.5-1.1-.1-.8.7-1.7 1.5-1.2zm-1.3 7.8v.6c-.5 0-.7-.2-.6-.6h.6zm-.8-5.3c-.1-.1.2-.3.2-.2.1.1-.1.3-.2.2zm.2-.6c-.3-.1-.2-.5-.2-.8.7-.2.4.6.2.8zm-.6-2.8c.5 0 .7.2.6.6h-.6v-.6zm0 5.5h.4v.4h-.4v-.4zm-.7 1.7c.1.1-.2.3-.2.2-.1-.1.2-.3.2-.2zm-1.9-3.8c.2.2-.3.5-.4.4-.2-.2.3-.5.4-.4zm-1.2 5.1c0-.5 0-1 .2-1.3.6 0 .9.4.8 1.1-.5-.1-.4.3-1 .2zm.8 2.3v.6c-.5 0-.7-.2-.6-.6h.6zm-.6-7v.6c-.4.1-.6-.1-.8-.2 0-.3.3-.4.8-.4zM63 28.9h.4v.4H63v-.4zm-1.3-5.7c.3.1.4.4.8.4-.1.3-.4.4-.4.8-.3-.1-.4-.4-.8-.4.1-.3.4-.4.4-.8zm-2.1 0c.2.2-.3.5-.4.4-.2-.2.3-.5.4-.4zm-.8 1.3c.4.1.4-.2.4-.4h.8c-.1.4.2.4.4.4v.8c-.4-.1-.4.2-.4.4h-.8c.1-.4-.2-.4-.4-.4v-.8zm-1.3 9.2c1.1-.1 1.4.6 1.3 1.7-.9.2-1.1-.3-1.7-.4.2-.3.4-.7.4-1.3zm-.8 2.8h-.4c0-.2-.1-.2-.2-.2-.1-.4.9-.3.6.2zm-2.1-.9c.5 0 1 0 1.1.4-.1.5-.6.7-.6 1.3-.6-.2-.5-.9-.5-1.7zm0-2.7c-.4.3-.8.5-.8 0s.8-.4.8 0zm-1.1 3.4c.4-.1.7 0 .6.4h-.6v-.4zm-4.6 3.3c.1.1-.2.3-.2.2-.1-.1.2-.2.2-.2zm-1 1.1c.7-.1 1 .2 1.1.8-.8.1-1.3 0-1.1-.8zm-.7-5.7v-.6c.6-.3.6.9 0 .6zm.2-2.3v.8c-.7.1-.8-.4-.8-.8h.8zm-1 4.2c.5 0 .9.1 1.1.4 0 1.1-1.6.7-1.1-.4zm-.6 5.1c0-.4-.3-.4-.2-.8h1.1c0 .6-.3.9-.9.8zm.4-2.4c0 .4-.5.3-.8.4-.1-.4.4-.3.8-.4zM34.8 52.3c.5 0 .7.2.6.6h-.6v-.6zM32.9 46c-.5.1-.9-.1-.8-.6.5-.1 1-.2.8.6zm-2.1 5.6c1 .2-.2 1.3 0 0zm-1.5 3.6h1.3v1.3h-1.3v-1.3zM27 62.6c.7-.1.8.3 1.3.4-.2.5-.5.7-1.3.6.2-.7-.4-.6 0-1zm-2.1 7.3h.4v.4h-.4v-.4zm-2.1-2.7c0 .6-1 .5-.8-.2.4-.1.5.1.8.2zm-.8-1.1c.1.1-.2.3-.2.2-.1-.1.1-.2.2-.2zm-1.1-3.8c1.2-.6 1.2 1.9 0 1.3v-1.3zm-1.7 23.6c.2.2-.3.5-.4.4-.2-.2.3-.5.4-.4zM19 69.1c.1.1-.2.3-.2.2-.1-.1.2-.3.2-.2zm-.2.8c-.1.9-.7.8-1.3.4.2-.3.7-.4 1.3-.4zM18 87.6c.2.2-.3.5-.4.4-.3-.2.2-.5.4-.4zm-4.3 8.8v-2.1H15c-.2 1.4 1.9.7 1.3 2.5-.9 1-1.3-.5-2.6-.4zm2 4.4c-.1.3-.3.4-.6.4-.2-.4.2-.3.6-.4zM15 89.7c-1.4.4-1.4-.6-1.3-1.7 1.2-.1 1.1.9 1.3 1.7zm-1.2-3.2c0-.2.3-.2.4-.2 0 .2-.3.2-.4.2zm.4 5.7c-.2-.2.3-.5.4-.4.2.2-.3.5-.4.4zm1.6.8c-.2-.9.3-1.1.4-1.7.7-.1.7.4 1.3.4.2 1.2-.6 1.5-1.7 1.3zm-.1-6c.1-.7.2-1.5 1.1-1.5-.1.8-.2 1.6-1.1 1.5zm.6-12c1.9.2-.4 2.5 0 0zm0 6.7c0 .4-.5.3-.8.4-.1-.4.4-.3.8-.4zM15 78.3c1.2-.6 1.2 1.9 0 1.3v-1.3zm0 4.6c.7.4 1.6.9.8 1.7-.3 0-.6-.1-.7-.2h-.3V84c-.1-.3-.1-.8.2-1.1zm-.8-6.7c1.4-1-1.1 1.4 0 0zm-1.3 3.4c1.1-.1 1.4.6 1.3 1.7h-1.7c-.2-.9.3-1.1.4-1.7zm0 13.4c-.1.5-.4.2-.4 0 .1-.4.4-.2.4 0zm-1.7 9.7v-.8h.8v.8h-.8zm.4 40.8h-1.3v-1.3c1 0 1.4.4 1.3 1.3zm-.4-53c0 .4-.5.3-.8.4 0-.4.5-.3.8-.4zm-2.1-1.9c.8-.2.8 1 0 .8-.3-.3.1-.2 0-.8zm0 4c-.2-.2.3-.5.4-.4.3.2-.3.5-.4.4zm-6.7 30.1c-1 .2-.4-1.1 0-.4v.4zm.4 1.1c-.1-1 .7-1.3.8-2.1 1 .3.5 2.5-.8 2.1zm1.1-3.8v-.6h.6c.1.3-.2.4-.2.6h-.4zm1.7 37.4c-.3.3-.8.1-.6-.2.1-.3 1.1-.3.6.2zm.6-34.1H4.5c-.1-.8.5-.9.4-1.7h1.3v1.7zm-.5-2.1v-1.7h1.7c0 1.1-.6 1.7-1.7 1.7zm2.6 32.4c.1-.5.4-.2.4 0-.1.5-.4.3-.4 0zm-.5-32.8c0-.4.5-.3.8-.4.1.4-.4.3-.8.4zm1.3-26.9c1.3-.2 1.3.9 1.3 2.1-1.7.5-2.1-1.3-1.3-2.1zm.2 21.4c0 .2-.2.1-.2 0 .1-.2.2-.1.2 0zm-.2 31.2c1.1-.1 2.1-.1 1.7 1.3 1 .2.9-.8 2.1-.4-.2 1.9-1.2 1.8-.4 3.8-.5-.1-.7.1-.8.4-1.1-.5-1.3-.9-.8-2.1-.2-1.6-2.2-1.1-1.8-3zm4 2.5v.4h-.4v-.4h.4zm-3.8 21.7c-.1-.4.1-.6.2-.8.3-.1.4.2.6.2.2.5-.2.6-.8.6zm.9 4c-.1-.4.1-.6.2-.8.3-.1.4.2.6.2-.2.2-.1.7-.8.6zM10 154c.5-.6.4-1.9 1.7-1.7-.1 1.1-.7 1.7-1.7 1.7zm1.2 3.8v-.4c.4-.1.7 0 .6.4h-.6zm.9 27.2c.4.2 1.1 0 1.1.6-.7 0-1.2 0-1.1-.6zm.6-21.9c-.1-.4.1-.6.2-.8.3-.1.4.2.6.2-.1.3-.1.8-.8.6zm2.7 10.9c.1-.3.2 0 .4 0 0 .3-.3.2-.4 0zm.7 4.2c0-.2.2-.1.2 0 0 .3-.2.1-.2 0zm-.7-6.9v-1.7c1.1.3 1.9 1.8 0 1.7zm3.4 11.3h-1.3c-.2-.9.3-1.1.4-1.7 1.3-.4.8 1 .9 1.7zm1.3 8c.6-1.5 1.9.5.8.8-.2.1-.9-.5-.8-.8zm1 4.9c0-.2.3-.2.4-.2 0 .2-.2.1-.4.2zm.9 3.1h-.4v-.4h.4v.4zm-.4-12c.2-.2.6-.3 1.1-.2.2 1.1-1.2 1.1-1.1.2zm1.6 2.1c.8.7-.6.8 0 0zm1.5 11.6c-.1-.1.2-.3.2-.2.1.1-.1.3-.2.2zm1.3-4.2c-.9.1-1.3-.3-1.3-1.3H26v1.3zm-1.3-2.1c.1-.5.4-.2.4 0-.1.5-.4.2-.4 0zm3.2 0h-.8c-.3-1 1-1.1.8 0zm1.2 18.1c.7-.2.7.3 1.1.4-.1.7-1.3.4-1.1-.4zm9.7-1.3c.1-.2.4-.1.4-.2.2-.4.2-1.6 1.1-1.5-.1 1.1-.7 1.5-1.3 2.1-.1.1-.2-.2-.2-.4zm1.9 9.3h-.4v-.4h.4v.4zm1.1-.4c-.5 0-.7-.2-.6-.6h.6v.6zm.8-.9c-.1-.6.3-.7.8-.6.1.5-.2.7-.8.6zm3.6 5.5v-.8h.8c.1.6-.2.9-.8.8zm2.5-5.1h-.4c-.1-.3.2-.4.2-.6h.4c.1.3-.2.4-.2.6zm5.1 9.3c-.1-.7.5-.8.8-.4-.1.3-.4.4-.8.4zm10.9 5.7h-.4v-.4h.4v.4zm11.4 12.2c-.1-.1.2-.3.2-.2.1.1-.2.2-.2.2zm2.7-3.4c-.5 0-.5-.8-.2-1.1.5.1.5.8.2 1.1zm2.3-2.7h-.6v-.6h.6v.6zm2.5 7.1c-1 .2-.4-1.1 0-.4v.4zm3.2-2.3h-.4v-.6c.3-.1.4.2.6.2 0 .2-.2.2-.2.4zm1.3-1.5h-.4v-.6h.6c0 .3-.2.4-.2.6zm1.9 6.3c.2-1.3.8-.6 1.7-.4.1 1.3-1.2.7-1.7.4zm11.7-3.1c-.4-.2 0-.4 0-.6.4.1.1.3 0 .6zm2.6 4h-1.1c0-.6.4-.9 1.1-.8v.8zm1.9 3.8c-.2 0-.2-.4-.2-.6.4-.1.4.2.4.4-.2-.1-.2 0-.2.2zm-2.3-8.4c0 .1-.1.1-.1.2h-.4v-.3c-24.8-5.8-46.7-19.5-62.8-38.2 0 .1 0 .2.1.3-.7 0-1.3 0-1.5-.4.1-.4.4-.5.7-.7-9.4-11.1-16.8-23.9-21.6-38-.1.4-.7.4-1.3.4-.1-.9.5-1.1 1.1-.9l-1.5-4.8v.1h-.8v-.8h.6c-2.9-10.3-4.5-21.1-4.5-32.3 0-7.1.6-14.1 1.9-20.9 0-.2-.1-.5-.1-.7h.2c6.3-34.3 27.5-63.5 56.6-80.7v-.9h.4c.1-.3.1-.4.1-.6.5-.1.6.2.6.7.2-.1.4-.2.7-.4V27c.2-.2.6-.3.8-.1 3.5-1.9 7.1-3.7 10.8-5.3 0-.2-.1-.4-.3-.4.2-.4.7-.2.9.2.6-.3 1.2-.5 1.9-.8-.1-.4.1-.6.2-.8.5-.1.8.1.8.5 1.1-.4 2.3-.9 3.4-1.3v-.5h.6s.1.1.1.2l1.8-.6c.6-1.4-.5-1.7-.6-2.9 1.1-.8 2.1-.2 2.3 1.1-1.1-.1.4.9-.4 1.1.1.1.2.3.3.4 5-1.6 10.1-2.8 15.3-3.7-.1-.7.2-1 .4-1.5.8 0 .9.7.7 1.3 2.9-.5 5.8-.8 8.8-1.1.1-.1.2-.2.2-.4.3.1.4.2.3.3 3.3-.3 6.6-.4 10-.4h1.5V12c.2 0 .2-.1.2-.2.3-.1.3.3.2.6 30.2.5 57.6 12.3 78.3 31.3v-.8c1-.5 1.2 1 .6 1.3 17.2 16 29.6 37 34.9 60.7v.1c1.9 8.3 2.9 17 2.9 25.9 0 2.3-.1 4.5-.2 6.8.2.1.4.1.5.3 0 .7-.2 1-.6 1.2-.5 7.4-1.7 14.5-3.5 21.5.4 0 .6.2.5.6.5-.1.8.1.6.6-.8-.2-1 0-1.4-.2-.6 2.2-1.3 4.4-2 6.5h1.8c.1 1-.1 1.6-.4 2.1-.9-.1-1.4-.4-1.6-1.2l-.6 1.8c.6-.2 1.3.3 1 1.5h-1.5c-2.5 6.7-5.6 13.1-9.2 19.1.1.2 0 .5-.3.5-8 13.2-18.4 24.7-30.7 33.9.3-.1.6-.1.9-.1v1.7c-1 .1-1.7-.1-1.7-1.1-19.6 14.4-43.9 23-70.1 23-9.3-.2-18.2-1.3-26.8-3.2zm7.7 8.8c-.9-.1-.1-1.3.4-.6 0 .2-.3.3-.4.6zm1.7-.9c-.1-.4.1-.6.2-.8.3-.1.4.2.6.2.1.6-.2.7-.8.6zm1.9-.8c-.1-.1.2-.3.2-.2.1.1-.1.3-.2.2zm2.1-4.4c.1.1-.2.3-.2.2-.1-.1.2-.3.2-.2z"/><path class="st0" d="M253.6 86.6c-.1-.3-.2-.5-.3-.8 0 .4 0 .7.3.8zM251.5 81.3l-.3-.6c-.1.3-.2.6-.5.5.1.6.5.4.8.1z"/></g><path class="st0" d="M42.3 122.3v.2c-.5.4-1.1.6-2.1.4-.2-.6-.1-.9.1-1.1l-4.4-9-.7 1.3c0 .9-.5 1.7-.9 1.9l-.3.6c.3.3.6.6.7.8.2 1.1-.7.9-.8 1.7-.1.8.7 1.4.4 2.1 0 .1-1.3.6-1.3.8.1.6 1.3.1 1.3.8.3 1.6-2 .5-2.9.8.1-.7.1-1.2-.1-1.7l-8.3 1.2c.3.3.5.6.8.9-.4.5-.6.8-.8 1.2l1.6 1.6c0-.2-.1-.6 0-.7.1-.1.8.1.8 0 .1-.4-1-1 0-1.7.9-.2 1.1.3 1.7.4.1.9-.3 1.3-1.3 1.3 0 .7 0 1.3-.1 1.8l2.7 2.6-.6 3.7c.4 0 .7.3.6.9h-.7l-.1.4c.3.1.4.4.4.8h-.5l-.7 4.3 9.1-4.8 3 1.6c.2-.2.4-.4.7-.5.7 0 .9.6 1.1 1.3l-.1.1 4.5 2.4-1.3-7.4c-.1.1-.3.1-.6.1v-.8h.5l-.4-2 .3-.3c-.1-.1-.3-.2-.4-.4.3-.8 1.1-1 2-1.1l5.5-5.4-8.4-1.1zm-10.9 8.2c.9-.2.7 1.3-.2 1.1 0-.5.1-.9.2-1.1zm-2.9-2.5c-2.5-.4-1.3-1.7-.4-1.8v-.5c.5-.1.8 0 1.1.2-.1.2-.2.5-.3.7 0 .2-.1.7-.4 1.4zm1.5-1.9c-.7-.1-1.4-.8-.8-1.5.6.1 1.2 1 .8 1.5zm1 8.4c.1-.3.2 0 .4 0 0 .3-.4.2-.4 0zm0-1.5c.1-.5-.4-.5-.2-1.1.7-.3.6.1 1.5 0-.1.7-.3 1.3-1.3 1.1zm3.8-16.6c-.1-.1.2-.3.2-.2.1.1-.1.3-.2.2zm-.4 10.7v-1.3c1.2-.6 1.2 1.9 0 1.3zm1.3 1.7c.6-.1.9.1.8.6-.6.1-1.1.1-.8-.6zm1.8-12c.1.1-.2.3-.2.2-.1-.1.2-.2.2-.2zm.7 2.5c-.4-.1-.6-.4-.8-.6 0-.5.8-.5 1.1-.2-.1.4-.4.4-.3.8zm2.9 4.2c.5-.1.8 0 1.1.2 0 .7-1.3.6-1.1-.2zm3 15.8c.6-.3.6.9 0 .6v-.6zm1-15.1c-.5-.6-1.2.4-1.7-.2-.1-1 .7-1.1 1.7-1.1 0 .8-.2.6 0 1.3zm2.1.8c-.1-.3.2-.4.2-.6.4.1.4.3.2.6h-.4zM216.8 140.9l9.1-4.8 9.1 4.8-1.7-10.2 1.1-1c-.3-.2-.5-.4-.4-.9.5-.5.9-.3 1.3 0l2.2-2.1h-.6v-1.3c.7-.1 1.1.2 1.2.6l.7-.6h-.6v-.8h.8v.6l.9-.9c-.1-.3-.1-.6-.1-.9l-3.4-.5c0 .3-.2.5-.6.4v-.5l-4.4-.6c-.2.6-.6 1-1.2.7v-1.5l-1.4-2.7c-.3-.1-.3-.4-.3-.7l-.1-.2c-.5-.1-.5-.3-.3-.6l-2.2-4.5-.9 1.7c0 .6.3 1.1 1.3.8-.1 1.1-.6 1.6-1.7 1.7-.1-.4-.2-.7-.4-.9l-2.9 5.9-10.2 1.5 7.4 7.2-1.7 10.3zm18.9-15.9c-.1.5-.4.2-.4 0 0-.5.4-.2.4 0zm-4.7 8.9c.2.9-.8.6-.8 1.3-1-.2 0-1.7.8-1.3zm-.8 3.3c-.1-1 .1-1.6.4-2.1 1.3.1 1.2 2.5-.4 2.1zm3.4-14.7c.2.9-.3 1.1-.4 1.7-.6-.1-.7-.7-1.3-.8.1-.8.7-1 1.7-.9zm-.9 3.8v1.3c-.9.1-1.3-.3-1.3-1.3h1.3zm-1.7 4.8h-.2c.1.1.2.1.2.2.2 1.3-.4 1.9-1.7 1.7-.9-.8-.3-1.9.6-2.1.1-.6.2-1.2 1.1-1 .3.2.3 1 0 1.2zm-2.5-8.2c1.2-.6 1.2 1.9 0 1.3v-1.3zm2.5 3.8c.4 1.7-1.5 1.1-.8 2.9h-2.1c0-1.9 1.7-2.2 2.9-2.9zm-4.2 5.9c.8-.2.6 1.9-.4 1.3v-.8c.4 0 .4-.2.4-.5zm-.2-6.3c0 .2-.2.1-.2 0 0-.3.2-.1.2 0zm-4.8 10.1c-.1-1.1.9-1.1 1.7-1.3-.1 1.2-1 2-1.7 1.3zm1.8-10.5c0-.2.2-.1.2 0 0 .2-.2.1-.2 0zm.3-3.8c0 1.5.2 3.3-1.7 2.9-.6-.8.1-3 1.7-2.9zm-2.4 0h.4v.4h-.4v-.4zm-3.8 3.1c.3.1.4.3.4.6-.7.2-.7-.3-.4-.6zm.3 3.6c-.2-.2.3-.5.4-.4.2.2-.3.5-.4.4z"/></svg>