<svg id="_x2014_ÎÓÈ_x5F_1" xmlns="http://www.w3.org/2000/svg" viewBox="0 0 519.6 661.4"><style>.st0{fill:#6F1C1C;}</style><path class="st0" d="M519.6 346c0 31.9-25.9 57.8-57.8 57.8H324.3c-26.4 0-47.9 21.5-47.9 47.9v25.5h-9.9v-25.5c0-31.9 25.9-57.8 57.8-57.8h137.5c26.4 0 47.9-21.5 47.9-47.9s-21.5-47.9-47.9-47.9h-404c-31.9 0-57.8-26-57.8-57.8 0-31.9 25.9-57.8 57.8-57.8H218c26.4 0 47.9-21.5 47.9-47.9V119h.9c3.1 0 6.1-.2 8.9-.6v16.2c0 31.9-25.9 57.8-57.8 57.8H57.8c-26.4 0-47.9 21.5-47.9 47.9s21.5 47.9 47.9 47.9h404c31.9 0 57.8 25.9 57.8 57.8zM143.8 93.3c-5.3 5.8-11.3 9.4-19.2 9.4-15.7 0-25.7-13.2-25.7-34.1C98.9 48 109.3 35 125 35c7.1 0 12.5 3.2 17 7.8l5.7-6.8c-4.8-5.5-12.7-10.3-22.8-10.3C103.7 25.7 88 42 88 68.8c0 27.1 15.5 43.1 36.2 43.1 10.8 0 18.9-4.4 25.5-12l-5.9-6.6zM192.1 25.7c-20.9 0-35.5 16.1-35.5 42.7 0 26.7 14.6 43.5 35.5 43.5s35.6-16.7 35.6-43.5c0-26.4-14.7-42.7-35.6-42.7zm0 76.9c-14.8 0-24.6-13.4-24.6-34.2 0-20.7 9.8-33.4 24.6-33.4s24.6 12.8 24.6 33.4c-.1 20.8-9.8 34.2-24.6 34.2zM266.3 27.3h-20.8v83.1h21.3c25.1 0 38.8-15.5 38.8-41.9s-13.7-41.2-39.3-41.2zm-.8 74.5H256V35.9h9.5c19.4 0 29.1 11.7 29.1 32.6.1 21-9.7 33.3-29.1 33.3zM333.9 101.4V71.2h31.5v-9h-31.5V36.1h37.4v-8.9h-47.9v83.1h49.2v-9h-38.7zM515.1 68.8l-51.6 58.9-6.1-4.8 40.4-54.1-40.5-53.5 6.3-5.2z"/><path class="st0" d="M515.1 68.8l-51.6 58.9-6.1-4.8 40.4-54.1-40.5-53.5 6.3-5.2zM4.5 68.8l51.6 58.9 6.1-4.8-40.4-54.1 40.5-53.5-6.3-5.2zM440.8 0l-42.3 137.6h-10.6L430.2 0zM439.2 486.3H80.4c-5.6 0-10.2 4.3-10.2 9.6v156c0 5.3 4.6 9.6 10.2 9.6h358.8c5.6 0 10.2-4.3 10.2-9.6v-156c0-5.3-4.6-9.6-10.2-9.6zm-38.3 10.9h35.6V522h-35.6v-24.8zm35.6 31.7v24.8h-32v-24.8h32zm-147.8 56.4v-24.8h30.7v24.8h-30.7zm6.1 7v24.8h-30.7v-24.8h30.7zm-2.5-38.7v-24.8H323v24.8h-30.7zm9.2 38.7h30.7v24.8h-30.7v-24.8zm24.6-7v-24.8h30.7v24.8h-30.7zm3.6-31.7v-24.8h30.7v24.8h-30.7zm9.2 38.7h30.7v24.8h-30.7v-24.8zm24.6-7v-24.8h30.7v24.8h-30.7zm3.6-31.7v-24.8h30.7v24.8h-30.7zm-22-56.4h30.7v20h-30.7v-20zm-37.4 0h30.7v20h-30.7v-20zm-37.4 0H301v20h-30.7v-20zm-15.4 31.6h30.7v24.8h-30.7v-24.8zm-3.6 31.7H282v24.8h-30.7v-24.8zm-44.1 0v24.8h-30.7v-24.8h30.7zm-27.1-6.9v-24.8h30.7v24.8h-30.7zm9.2 38.7H220v24.8h-30.7v-24.8zm24.6-7v-24.8h30.7v24.8h-30.7zm12.8 7h30.7v24.8h-30.7v-24.8zm21.5-38.7h-30.7v-24.8h30.7v24.8zm-41.4-56.4h30.7v20h-30.7v-20zm-37.4 0H200v20h-30.7v-20zm-34.9 63.3v24.8H82.8v-24.8h51.7zm-51.7-6.9v-24.8H136v24.8H82.8zm62.4 38.7v24.8H82.8v-24.8h62.4zm-6.1-7v-24.8h30.7v24.8h-30.7zm3.6-31.7v-24.8h30.7v24.8h-30.7zm-10.8-56.4h30.7v20h-30.7v-20zm-49.1 0h42.4v20H82.8v-20zm30.7 153.3H82.8v-24.8h30.7v24.8zm37.4 0h-30.7v-24.8h30.7v24.8zm1-58.2h30.7v24.8h-30.7v-24.8zm172.7 58.2h-167v-24.8h166.9v24.8zm37.4 0h-30.7v-24.8H362v24.8zm37.4 0h-30.7v-24.8h30.7v24.8zm37.4 0h-30.7v-24.8h30.7v24.8zm0-33.4h-60.4v-24.8h60.4v24.8zm0-31.7H401v-24.8h35.8v24.8z"/></svg>