<svg id="Isolation_Mode" xmlns="http://www.w3.org/2000/svg" viewBox="0 0 40 28.3">
  <style>
    .st0{fill:#000;}
  </style>
  <path class="st0" d="M2.2 1.2l17.9 17.2L37.9 1.2c.1-.1.2-.1.2-.1-.8-.7-1.9-1.1-3-1.1H4.9c-1.1 0-2.1.4-3 1 .1.1.2.1.3.2zM39.2 24.9c.2.1.3.2.5.3.2-.6.4-1.2.4-1.8V4.9c0-.3 0-.6-.1-.9L29 14.6c4.4 4.6 9.1 9.4 10.2 10.3z"/>
  <path class="st0" d="M26.5 17l-5.2 5c-.3.3-.8.5-1.2.5-.4 0-.9-.2-1.2-.5l-5.3-5L2.7 27.8c.7.3 1.4.5 2.2.5h30.2c.8 0 1.5-.2 2.2-.5-1.5-1-4.2-3.8-10.8-10.8zM.1 4c-.1.3-.1.6-.1.9v18.5c0 .6.1 1.3.4 1.8l10.8-10.7L.1 4z"/>
</svg>
