<svg id="Layer_1" xmlns="http://www.w3.org/2000/svg" viewBox="0 0 61 61"><style>.st0{fill:#BFBFBF;}</style><circle id="XMLID_1_" class="st0" cx="30.5" cy="30.5" r="30.5"/><path d="M41.5 19.6H19.6c-2 0-3.7 1.6-3.7 3.7v14.6c0 2 1.6 3.7 3.7 3.7h21.9c2 0 3.7-1.6 3.7-3.7V23.2c-.1-2-1.7-3.6-3.7-3.6m-6 9.7l7.7-6.6c.1.2.1.3.1.5v14.6c0 .1 0 .2-.1.4l-7.7-8.9zm6-7.9c.1 0 .2 0 .3.1l-11.3 9.7-11.3-9.7c.1 0 .2-.1.3-.1h22zM17.8 38.2c0-.1-.1-.2-.1-.4V23.2c0-.2.1-.4.1-.5l7.7 6.6-7.7 8.9zm1.8 1.5c-.2 0-.4-.1-.5-.1l7.9-9 3 2.5c.2.1.4.2.6.2.2 0 .4-.1.6-.2l3-2.5 7.9 9c-.2.1-.3.1-.5.1h-22z"/></svg>