<svg id="Layer_1" xmlns="http://www.w3.org/2000/svg" viewBox="0 0 85 82.3"><style>.st0{fill:#6F1C1C;}</style><path class="st0" d="M78.4 63.6H6.6C3 63.6 0 60.6 0 57V6.6C0 3 3 0 6.6 0h71.7C82 0 85 3 85 6.6V57c0 3.6-3 6.6-6.6 6.6zM6.6 2.2c-2.4 0-4.4 2-4.4 4.4V57c0 2.4 2 4.4 4.4 4.4h71.7c2.4 0 4.4-2 4.4-4.4V6.6c0-2.4-2-4.4-4.4-4.4H6.6z"/><path class="st0" d="M83.9 57.7H1.1c-.6 0-1.1-.5-1.1-1.1V7c0-.6.5-1.1 1.1-1.1h82.7c.7 0 1.2.5 1.2 1.1v49.5c0 .7-.5 1.2-1.1 1.2zM2.2 55.4h80.5V8.2H2.2v47.2zM64.5 82.3h-44c-.3 0-.6-.1-.8-.3-.2-.2-.3-.5-.3-.8 0-3.2 2.6-5.8 5.8-5.8h8.7l2.9-9.6c.2-.6.8-.9 1.4-.8.6.2.9.8.8 1.4l-3.1 10.4c-.1.5-.6.8-1.1.8h-9.5c-1.6 0-2.9 1-3.4 2.4h41.3c-.5-1.4-1.8-2.4-3.4-2.4h-9.5c-.5 0-1-.4-1.1-.9l-2.5-10.4c-.1-.6.2-1.2.8-1.4.6-.1 1.2.2 1.4.8l2.3 9.5h8.6c3.2 0 5.8 2.6 5.8 5.8 0 .8-.5 1.3-1.1 1.3z"/><path class="st0" d="M37.4 39.6c-.3 0-.6-.1-.8-.3-.4-.4-.4-1.2 0-1.6l16.5-16.5c.4-.4 1.2-.4 1.6 0 .4.4.4 1.2 0 1.6L38.2 39.3c-.2.2-.5.3-.8.3zM27.3 42.6c-.3 0-.6-.1-.8-.3-.4-.4-.4-1.2 0-1.6l13.8-13.8c.4-.4 1.2-.4 1.6 0 .4.4.4 1.2 0 1.6L28.1 42.3c-.2.2-.5.3-.8.3z"/></svg>