<svg xmlns="http://www.w3.org/2000/svg" id="Isolation_Mode" viewBox="0 0 50.9 43.7">
  <style>
    .st0{fill:#000;}
  </style>
  <path d="M32.8 33.2c0-3.1-.1-6.1-3.1-6.4-9.8-1.5-9.1-5.8-9.2-7 3-1.7 4.2-8.6 4.2-8.6C24.7 4.1 21.6 0 16.1 0S7.2 3.9 7.2 10.4c0 7.3 4.4 9.2 4.4 9.2 0 4.9-4.4 6.3-8.7 7.7-4.3 1.3-2.5 5.9-2.5 5.9.2.2 7.8 10.2 25.1 10.5 4.3 0 7.3-.5 7.3-.5v-10z" class="st0"/>
  <path d="M50.9 33.1c0-2.7-.1-5.2-2.7-5.5-8.4-1.3-7.8-5-7.9-6 2.6-1.4 3.6-7.4 3.6-7.4 0-6.1-2.7-9.7-7.4-9.7s-7.7 3.3-7.7 8.9c0 6.3 3.8 8 3.8 8 0 1.9-.8 3-1.6 3.5 0 0 3.2.8 4 3.5.6 2.1.4 4.7.4 4.7l-.4 10s10.5-1.6 15.9-10z" class="st0"/>
</svg>
