<svg id="Layer_1" xmlns="http://www.w3.org/2000/svg" viewBox="0 0 88 75.6"><style>.st0{fill:#6F1C1C;}</style><path class="st0" d="M86.9 75.6H31.4c-.6 0-1.1-.5-1.1-1.1V52.3c0-.6.5-1.1 1.1-1.1.6 0 1.1.5 1.1 1.1v21.1h53.3V12.5L76 2.8H32.5v8.6c0 .6-.5 1.1-1.1 1.1-.6 0-1.1-.5-1.1-1.1V1.6c0-.6.5-1.1 1.1-1.1h45.1c.3 0 .6.1.8.3l10.4 10.4c.2.2.3.5.3.8v62.5c0 .6-.5 1.1-1.1 1.1z"/><path class="st0" d="M76.5 13.2c-.3 0-.6-.1-.8-.3-.2-.2-.3-.5-.3-.8V1.7c0-.6.5-1.1 1.1-1.1.6 0 1.1.5 1.1 1.1V11h9.2c.6 0 1.1.5 1.1 1.1 0 .6-.5 1.1-1.1 1.1H76.5zM36.2 51.9c-.3 0-.6-.1-.8-.3L.3 16.4c-.4-.4-.4-1.2 0-1.6L14.8.3c.4-.4 1.2-.4 1.6 0l35.1 35.1c.4.4.4 1.2 0 1.6L37 51.5c-.2.2-.5.4-.8.4zM2.7 15.6l33.5 33.5 12.9-12.9L15.6 2.7 2.7 15.6z"/><path class="st0" d="M40 48.1c-.3 0-.6-.1-.8-.3L4.1 12.7c-.4-.4-.4-1.2 0-1.6.4-.4 1.2-.4 1.6 0l35.1 35.1c.4.4.4 1.2 0 1.6-.2.2-.5.3-.8.3zm6.9-7c-.3 0-.6-.1-.8-.3l-35-35.1c-.4-.4-.4-1.2 0-1.6.4-.4 1.2-.4 1.6 0l35.1 35.1c.4.4.4 1.2 0 1.6-.3.2-.6.3-.9.3z"/><path class="st0" d="M60.9 62c-.1 0-.3 0-.4-.1L35.8 51.8c-.3-.1-.6-.5-.7-.8-.1-.4 0-.8.3-1l14.5-14.5c.3-.3.6-.4 1-.3.4.1.7.3.8.7l10.1 24.6c.2.4.1.9-.2 1.2-.2.2-.5.3-.7.3zM38.2 50.3l20.6 8.5-8.5-20.6-12.1 12.1z"/><path class="st0" d="M60.9 62c-.1 0-.3 0-.4-.1l-9.3-3.8c-.3-.1-.6-.5-.7-.8-.1-.4 0-.8.3-1l5.5-5.5c.3-.3.6-.4 1-.3.4.1.7.3.8.7l3.7 9.1c.1.2.2.4.2.6 0 .6-.5 1.1-1.1 1.1zm-7.3-5.4l5.2 2.2-2.2-5.2-3 3z"/></svg>