<svg id="Layer_1" xmlns="http://www.w3.org/2000/svg" viewBox="0 0 61 61"><style>.st0{fill:#BFBFBF;}</style><circle id="XMLID_1_" class="st0" cx="30.5" cy="30.5" r="30.5"/><path d="M47.9 40.6c.1.6-.1 1.1-.5 1.5L42.5 47c-.2.2-.5.5-.9.6-.4.2-.7.3-1.1.3h-.7c-.5 0-1.2-.1-2.3-.2-1-.2-2.3-.6-3.8-1.2s-3.2-1.6-5.2-2.8c-1.9-1.3-4-3-6.1-5.2-1.7-1.7-3.1-3.3-4.3-4.9-1.1-1.6-2-3-2.7-4.3-.7-1.3-1.2-2.5-1.6-3.6-.3-1.1-.6-2-.7-2.8-.1-.8-.2-1.4-.1-1.8v-.7c0-.3.2-.7.3-1.1.2-.4.4-.6.6-.9l4.9-4.9c.3-.3.7-.5 1.2-.5.3 0 .6.1.8.3.2.2.5.4.6.7l4 7.5c.2.4.3.8.2 1.3-.1.5-.3.9-.6 1.2l-1.8 1.8c-.1 0-.1.1-.1.2s-.1.2-.1.3c.1.5.3 1.1.7 1.8.3.6.8 1.3 1.4 2.2.6.9 1.5 1.8 2.6 2.9 1.1 1.1 2.1 2 3 2.6.9.6 1.6 1.1 2.2 1.4.6.3 1 .5 1.3.5l.5.1c.1 0 .1 0 .2-.1.1 0 .2-.1.2-.1l2.1-2.1c.4-.4 1-.6 1.6-.6.4 0 .8.1 1 .2l7.1 4.2c.6.4.9.8 1 1.3"/></svg>