<svg id="Layer_1" xmlns="http://www.w3.org/2000/svg" viewBox="0 0 261.2 261.2"><style>.st0{fill:#9B9B9B;} .st1{fill:none;} .st2{font-family:&apos;Arial-BoldMT&apos;;} .st3{font-size:40px;} .st4{letter-spacing:2;}</style><path class="st0" d="M130.6 261.2C58.6 261.2 0 202.6 0 130.6S58.6 0 130.6 0s130.6 58.6 130.6 130.6-58.6 130.6-130.6 130.6zm0-249.2C65.2 12 12 65.2 12 130.6c0 65.4 53.2 118.6 118.6 118.6 65.4 0 118.6-53.2 118.6-118.6C249.2 65.2 196 12 130.6 12z"/><path class="st0" d="M130.6 17.1c30.3 0 58.8 11.8 80.3 33.3 21.4 21.4 33.3 50 33.3 80.3 0 30.3-11.8 58.8-33.3 80.3-21.4 21.4-50 33.3-80.3 33.3-30.3 0-58.8-11.8-80.3-33.3C28.9 189.6 17 161 17 130.7c0-30.3 11.8-58.8 33.3-80.3 21.5-21.5 50-33.3 80.3-33.3m0-2c-63.8 0-115.5 51.7-115.5 115.5s51.7 115.5 115.5 115.5 115.5-51.7 115.5-115.5S194.4 15.1 130.6 15.1z"/><path class="st1" d="M34.7 79.9h217v147h-217z"/><text transform="translate(34.708 124.526)"><tspan x="0" y="0" class="st0 st2 st3">PREMIUM</tspan><tspan x="0" y="39" class="st0 st2 st3 st4">SERVICE</tspan></text><path class="st0" d="M44.7 58.4c-2 2.4-3.9 4.9-5.8 7.5h183.4c-1.8-2.6-3.7-5.1-5.8-7.5H44.7zM30.7 79.4c-1 2-2 4-2.9 6h205.5c-.9-2-1.9-4-2.9-6H30.7zM228.3 75.4c-1.3-2.2-2.6-4.4-4-6.5H36.8c-1.4 2.1-2.7 4.3-4 6.5h195.5zM130.6 18.3c-33.5 0-63.6 14.7-84.2 38h168.4c-20.6-23.2-50.7-38-84.2-38zm21.6 32.8c-6.8-1.8-14.1-2.3-21.1-2.3-6.4 0-13.2.3-19.4 2.2-1.1.3-1.6-1.4-.5-1.8 6.3-1.9 13.3-2.3 19.9-2.3 7.2 0 14.6.6 21.6 2.4 1.1.4.7 2.1-.5 1.8zm6.3-15.9h-.1l-4.7 12.1s-12.2-2.1-22.5-2.1c-9 0-20.8 2.1-20.8 2.1l-5.2-12.1c-.1 0-.3.1-.4.1-.7 0-1.3-.6-1.3-1.3 0-.7.6-1.3 1.3-1.3.7 0 1.3.6 1.3 1.3 0 .4-.2.7-.4.9 2.6 1.9 10.3 7.1 13.6 6.3 4.2-1 9.9-11.7 11.8-15.4-.3-.2-.6-.6-.6-1.1 0-.7.6-1.3 1.3-1.3.7 0 1.3.6 1.3 1.3 0 .5-.2.8-.6 1.1 2.3 3.8 9.3 14.7 13.9 15.5 2.8.5 9.1-4.4 11.5-6.3-.4-.2-.6-.6-.6-1.1 0-.7.6-1.3 1.3-1.3.7 0 1.3.6 1.3 1.3-.1.7-.7 1.3-1.4 1.3z"/><g><path class="st0" d="M214.8 204.3c-20.6 23.3-50.7 38-84.2 38s-63.6-14.7-84.2-38h168.4zM44.7 202.3c-2-2.4-3.9-4.9-5.8-7.5h183.4c-1.8 2.6-3.7 5.1-5.8 7.5H44.7zM30.7 181.3c-1-2-2-4-2.9-6h205.5c-.9 2-1.9 4-2.9 6H30.7zM228.3 185.3c-1.3 2.2-2.6 4.4-4 6.5H36.8c-1.4-2.1-2.7-4.3-4-6.5h195.5z"/></g></svg>