<svg id="Layer_1" xmlns="http://www.w3.org/2000/svg" viewBox="0 0 1224 942"><style>.st0{fill:#353535;}</style><path class="st0" d="M100.5 831.7C45.6 831.7 1 787 1 732.2V100C1 45.1 45.6.5 100.5.5h1023.9c54.9 0 99.5 44.6 99.5 99.5v632.2c0 54.9-44.6 99.5-99.5 99.5H100.5z"/><path d="M1124.4 1c54.6 0 99 44.4 99 99v632.2c0 54.6-44.4 99-99 99H100.5c-54.6 0-99-44.4-99-99V100c0-54.6 44.4-99 99-99h1023.9m0-1H100.5C45.3 0 .5 44.8.5 100v632.2c0 55.2 44.8 100 100 100h1023.9c55.2 0 100-44.8 100-100V100c0-55.2-44.8-100-100-100z"/><g><path class="st0" d="M432.336 746.43l191.766-191.766L815.867 746.43 624.102 938.194z"/></g></svg>