<svg xmlns="http://www.w3.org/2000/svg" viewBox="0 0 55 74.2"><path d="M53.6 48.5l-25.9-26c-.9-.9-2.2-1.7-3.7-2.3-1.5-.6-3-1-4.2-1H4.6c-1.3 0-2.3.5-3.3 1.4-.9.9-1.4 2-1.4 3.3V39c0 1.3.3 2.7 1 4.2.6 1.5 1.4 2.8 2.3 3.7l25.9 26c.9.9 2 1.3 3.3 1.3 1.3 0 2.4-.4 3.3-1.3L53.6 55c.9-.9 1.3-2 1.3-3.3.1-1.2-.4-2.3-1.3-3.2zM14.9 34.1c-.9.9-2 1.4-3.3 1.4s-2.4-.5-3.3-1.4c-.9-.9-1.4-2-1.4-3.3 0-1.3.5-2.4 1.4-3.3.9-.9 2-1.4 3.3-1.4s2.4.5 3.3 1.4c.9.9 1.4 2 1.4 3.3 0 1.3-.5 2.4-1.4 3.3zm29.3 20.1c-.4.7-.8 1.2-1.3 1.7-.6.6-1.6 1.3-3 2s-2.3 1.4-2.8 1.8c-.9.8-1.4 2-1.7 3.5l-3.6-1.5c.2-1.4.2-2.5-.1-3.5-.3-1-.7-1.8-1.3-2.4l-.6-.6-2.2 2.2-2.3-2.3 1.7-1.6c-1.1-.6-2.1-1.3-2.9-2.1-.8-.8-1.3-1.7-1.5-2.8-.3-1.1-.2-2.2.2-3.3.4-1.1 1.1-2.1 2-3 1.4-1.4 2.9-2.1 4.4-2.2s3 .4 4.5 1.6L31 44.9c-.9-.6-1.7-.9-2.3-.9-.7 0-1.3.3-1.8.8-.6.5-.9 1.2-.9 1.9s.3 1.4.8 2c.3.3.7.6 1.3 1 .6.4 1.1.7 1.7 1l3.3-3.2 2.3 2.3-2.8 2.8c.2.1.3.3.5.4.5.6.9 1.2 1.2 1.9.3.7.4 1.7.5 3.1.2-.6.6-1.2 1.2-1.7.2-.2.5-.4.7-.6.1-.1.5-.3 1.1-.6 1.1-.6 1.8-1.1 2.1-1.4.6-.5 1.1-1.4 1.6-2.7l3.6 1.4c-.2.5-.5 1.2-.9 1.8z"/><path d="M12.3 26.9c-1.9-1.3-3.5-2.9-5.1-4.5-1.3-1.5-2.4-3.1-3-5-1.2-3.7 2.7-6.9 6.2-6.1 5.8 1.2 10 9.3 16.5 5.7C36 11.9 15.6 1.5 12.3 0c-.9-.4-1.6.9-.8 1.3 4.7 2.2 9.4 4.8 13.3 8.2 1.1 1 2.2 2.1 2.7 3.5 1.5 3.9-5.3 3.3-7 2.5-3.1-1.5-5.5-4.4-8.9-5.5-4.3-1.4-10 1.8-9 6.9.9 4.7 5.1 8.5 8.9 11.2.9.6 1.6-.7.8-1.2z"/></svg>