<svg id="Layer_1" xmlns="http://www.w3.org/2000/svg" viewBox="0 0 261.2 261.2"><style>.st0{fill:#9B9B9B;}</style><path class="st0" d="M130.6 261.2C58.6 261.2 0 202.6 0 130.6S58.6 0 130.6 0s130.6 58.6 130.6 130.6-58.6 130.6-130.6 130.6zm0-249.2C65.2 12 12 65.2 12 130.6c0 65.4 53.2 118.6 118.6 118.6 65.4 0 118.6-53.2 118.6-118.6C249.2 65.2 196 12 130.6 12z"/><path class="st0" d="M130.6 17.1c30.3 0 58.8 11.8 80.3 33.3 21.4 21.4 33.3 50 33.3 80.3 0 30.3-11.8 58.8-33.3 80.3-21.4 21.4-50 33.3-80.3 33.3-30.3 0-58.8-11.8-80.3-33.3C28.9 189.6 17 161 17 130.7c0-30.3 11.8-58.8 33.3-80.3 21.5-21.5 50-33.3 80.3-33.3m0-2c-63.8 0-115.5 51.7-115.5 115.5s51.7 115.5 115.5 115.5 115.5-51.7 115.5-115.5S194.4 15.1 130.6 15.1z"/><path class="st0" d="M130.6 207.7c-42.5 0-77.1-34.6-77.1-77.1 0-42.5 34.6-77.1 77.1-77.1 42.5 0 77.1 34.6 77.1 77.1 0 42.5-34.6 77.1-77.1 77.1zm0-147.2C92 60.5 60.5 92 60.5 130.6c0 38.6 31.4 70.1 70.1 70.1 38.6 0 70.1-31.4 70.1-70.1 0-38.6-31.5-70.1-70.1-70.1z"/><path class="st0" d="M130.6 197.1c-36.7 0-66.6-29.9-66.6-66.6S93.9 64 130.6 64s66.6 29.9 66.6 66.6-29.9 66.5-66.6 66.5zm0-132.1C94.4 65 65 94.4 65 130.6s29.4 65.6 65.6 65.6 65.6-29.4 65.6-65.6S166.7 65 130.6 65zM65.2 73c1.2-.4 2.4-1 3.5-1.7l1.5 3.1c-.5.4-1.1.8-1.8 1.1-.1.1-1.2.5-3.2 1.2-.3 1.5-1 2.9-2 4.3-2 2.7-4.3 4.2-6.9 4.5-2.7.4-5.4-.5-8.3-2.6-2.8-2.1-4.5-4.4-4.9-7.1s.3-5.3 2.2-7.9c1.9-2.6 4.2-4 6.8-4.4 2.7-.4 5.4.5 8.3 2.6 1.5 1.1 2.7 2.3 3.5 3.5.6 1 1 2.2 1.3 3.4zm-4 1.4c-.2-.8-.6-1.6-1.2-2.4s-1.4-1.5-2.3-2.2c-2-1.5-3.8-2.1-5.5-2-1.6.2-3 .9-4 2.4-1 1.4-1.4 2.9-1.1 4.6s1.5 3.2 3.5 4.6c2 1.5 3.9 2.2 5.5 2 1.7-.1 3-.9 4-2.3.4-.5.6-1 .8-1.6-1 .4-1.9.8-2.7 1.4L57 76.4c1.3-.9 2.7-1.5 4.2-2zM55.8 55.7l3.3-2.8 7.5 8.9c1.2 1.4 2 2.3 2.4 2.6.7.6 1.5.8 2.4.8.9 0 1.8-.5 2.7-1.2.9-.8 1.5-1.6 1.6-2.4.2-.8 0-1.5-.3-2.1-.4-.6-1.1-1.6-2.2-2.9l-7.7-9.1 3.3-2.8 7.3 8.6c1.7 2 2.8 3.4 3.3 4.4.5 1 .8 1.9.8 2.9s-.3 2-.8 3-1.4 2.1-2.7 3.2c-1.6 1.3-2.9 2.1-4 2.5s-2.2.4-3.1.2c-1-.2-1.8-.5-2.5-1-1-.8-2.3-2-3.8-3.9l-7.5-8.9zM85.3 59.8L74.1 41.5l3.7-2.2L89 57.6l-3.7 2.2zM100.6 43.6l4.4-.4c.3 2.4 0 4.4-1 6-1 1.6-2.5 2.9-4.6 3.7-2.6 1.1-5.2 1.1-7.6 0-2.4-1.1-4.3-3.2-5.6-6.4-1.4-3.3-1.5-6.2-.6-8.8 1-2.5 2.8-4.4 5.6-5.5 2.4-1 4.7-1.1 6.8-.3 1.3.5 2.4 1.4 3.5 2.8L98 37.5c-.7-.9-1.5-1.5-2.5-1.8-1-.3-2-.2-3.1.2-1.5.6-2.5 1.6-2.9 3.1-.5 1.4-.2 3.3.7 5.7 1 2.5 2.2 4.1 3.5 4.8 1.3.7 2.7.8 4.2.2 1.1-.4 1.8-1.1 2.3-2.1.5-1.2.7-2.5.4-4zM108.8 49l-3.4-21.2 4.3-.7 1.5 9.4 7.1-10.8 5.8-.9-6.7 9.5 10.5 11.6-5.5.9-7.4-9-2.9 4.1 1 6.4-4.3.7zM137.7 46.4l-1-22.1 4.4.8.4 15.1 6.6-13.7 5.1 1 .9 15.4 6.1-14.1 4.3.8-9.2 20.1-4.5-.9-1.2-16.6-7.2 15-4.7-.8zM163.5 41.2c1-2 2.1-3.5 3.3-4.5.9-.8 2-1.3 3.1-1.7s2.3-.6 3.3-.5c1.4.1 3 .5 4.5 1.3 2.8 1.4 4.7 3.4 5.5 6 .8 2.6.5 5.5-1.1 8.6-1.5 3.1-3.6 5.1-6.2 6-2.6.9-5.3.7-8.1-.7-2.9-1.4-4.7-3.4-5.5-6-.7-2.6-.4-5.4 1.2-8.5zm4 1.9c-1.1 2.2-1.4 4.1-1 5.7.4 1.6 1.4 2.8 3 3.6 1.5.8 3.1.8 4.6.2 1.5-.6 2.9-2 4-4.3 1.1-2.2 1.4-4.1 1-5.7-.4-1.6-1.4-2.7-3-3.5-1.6-.8-3.2-.9-4.7-.3-1.5.7-2.8 2.1-3.9 4.3zM178 60.7l13.8-16.4 7 5.9c1.8 1.5 2.9 2.7 3.5 3.7.5 1 .7 2 .6 3.2-.2 1.2-.6 2.2-1.5 3.2-1 1.2-2.3 1.9-3.7 2.1-1.4.2-2.9-.2-4.5-1.2.4 1 .6 2 .6 2.9 0 .9-.1 2.3-.4 4.3l-.7 4.9-4-3.3.6-5.6c.2-2 .3-3.3.3-3.9 0-.6-.2-1.1-.4-1.5-.2-.4-.8-.9-1.5-1.6l-.7-.6-5.8 6.9-3.2-3zm11.3-6.7l2.5 2.1c1.6 1.3 2.6 2.1 3.2 2.3.5.2 1 .2 1.5.1s1-.5 1.4-1c.5-.6.7-1.1.7-1.7 0-.6-.2-1.2-.7-1.7-.2-.3-1-1-2.4-2.1l-2.6-2.2-3.6 4.2z"/><path class="st0" d="M192.5 73.2l17.1-12.9 2.6 3.5-7.6 5.7 12.9 1.3 3.5 4.7-11.5-1.5-5.3 14.7-3.4-4.5 4.5-10.8-5-.6-5.2 3.9-2.6-3.5z"/><g><path class="st0" d="M27.7 156.3l17.2-4.7-1.7-6.2 3.5-.9 4.5 16.5-3.5.9-1.7-6.1-17.2 4.7-1.1-4.2zM53.1 165.5l2.2 3.7-10.1 5.8c-1.6.9-2.6 1.6-3 1.9-.7.6-1.1 1.3-1.2 2.2s.1 1.8.8 2.9c.6 1.1 1.3 1.7 2.1 2s1.5.3 2.2 0c.7-.3 1.8-.8 3.2-1.7l10.3-6 2.2 3.7-9.8 6c-2.2 1.3-3.9 2.1-4.9 2.4-1 .3-2 .4-3 .2s-1.9-.6-2.8-1.3c-.9-.7-1.8-1.8-2.6-3.2-1-1.8-1.6-3.2-1.7-4.4s0-2.2.3-3.1c.3-.9.8-1.7 1.4-2.2.9-.9 2.4-1.9 4.5-3.1l9.9-5.8zM51.1 201.3L66 185.7l6.6 6.3c1.7 1.6 2.7 2.9 3.2 3.9s.6 2.1.4 3.2c-.2 1.1-.8 2.2-1.7 3.1-1.1 1.2-2.4 1.8-3.8 1.9-1.4.1-2.9-.4-4.4-1.5.3 1 .4 2 .4 2.9s-.2 2.3-.6 4.2l-1 4.8-3.7-3.6 1-5.5c.3-2 .5-3.3.5-3.9 0-.6-.1-1.1-.3-1.5-.2-.4-.7-1-1.4-1.7l-.6-.6-6.2 6.5-3.3-2.9zm11.7-6l2.3 2.2c1.5 1.4 2.5 2.3 3 2.5s1 .3 1.5.2 1-.4 1.4-.9c.5-.5.8-1.1.8-1.7s-.2-1.2-.6-1.7c-.2-.3-1-1-2.2-2.2l-2.4-2.3-3.8 3.9zM74 220.6l9.9-19 3.7 2 1.2 16.8 6.6-12.7 3.6 1.9-9.9 19-3.9-2-1.2-16.5-6.5 12.4-3.5-1.9zM130.3 237.1l-4.7-.5-1.4-5-8.5-.9-2.3 4.7-4.6-.5 10.5-20.5 4.6.5 6.4 22.2zm-7-9.2l-2.1-8.2-3.7 7.6 5.8.6zM141 236.4l-3.8-21.1 9-1.6c2.3-.4 3.9-.5 5-.3s2 .7 2.8 1.6c.8.9 1.3 1.9 1.5 3.2.3 1.6.1 3-.7 4.2-.7 1.2-2 2.1-3.8 2.7 1 .4 1.9.8 2.6 1.4.7.5 1.7 1.5 3 3l3.3 3.7-5.1.9-3.9-4c-1.4-1.4-2.3-2.3-2.8-2.7-.5-.4-1-.6-1.4-.6-.5-.1-1.2 0-2.2.1l-.9.2 1.6 8.8-4.2.5zm2-12.9l3.2-.6c2-.4 3.3-.7 3.8-.9.5-.3.8-.6 1-1.1.2-.5.3-1 .1-1.7-.1-.7-.4-1.3-.9-1.6-.5-.4-1-.5-1.8-.5-.4 0-1.4.2-3.1.5l-3.3.6 1 5.3zM164.8 220.3c-1-1.9-1.5-3.7-1.6-5.3-.1-1.2.1-2.4.4-3.5.4-1.2.9-2.2 1.6-3 .9-1.1 2.2-2.1 3.7-2.9 2.8-1.4 5.5-1.7 8.1-.8 2.6.9 4.7 2.9 6.3 6 1.6 3.1 2 5.9 1.2 8.5-.8 2.6-2.6 4.6-5.4 6.1-2.8 1.5-5.5 1.7-8.1.9-2.6-1-4.6-3-6.2-6zm3.9-2.2c1.1 2.2 2.4 3.5 4 4.2 1.6.6 3.1.5 4.7-.3s2.5-2 2.9-3.6c.4-1.6.1-3.5-1.1-5.7-1.1-2.2-2.4-3.6-4-4.2-1.5-.6-3.1-.5-4.7.3s-2.6 2-3 3.6c-.3 1.6.1 3.5 1.2 5.7zM182.9 197.5l3.1-3 8.1 8.4c1.3 1.3 2.1 2.2 2.6 2.5.7.5 1.6.7 2.4.6s1.7-.6 2.6-1.4c.9-.9 1.4-1.7 1.5-2.5.1-.8-.1-1.5-.5-2.1-.4-.6-1.2-1.5-2.4-2.8l-8.2-8.6 3.1-3 7.8 8.1c1.8 1.9 3 3.3 3.5 4.2.6.9.9 1.9.9 2.8.1 1-.1 2-.6 3s-1.3 2.2-2.5 3.3c-1.5 1.4-2.8 2.3-3.9 2.7s-2.1.5-3.1.4c-1-.1-1.8-.4-2.5-.9-1.1-.7-2.4-1.9-4.1-3.6l-7.8-8.1zM218.2 191l-18.6-10.7 2.1-3.7 16.8-.4-12.4-7.2 2-3.5 18.6 10.7-2.2 3.8-16.5.5 12.1 7-1.9 3.5zM210.7 159.1l1.9-7.7c.4-1.7.9-3 1.4-3.9.7-1.1 1.6-2 2.7-2.7 1.1-.6 2.4-1 3.9-1.2 1.4-.1 3.1 0 5.1.5 1.7.4 3.1 1 4.3 1.7 1.4.9 2.4 1.9 3.1 3.1.5.9.8 2 .9 3.4.1 1-.1 2.3-.5 3.8l-1.9 7.9-20.9-4.9zm4.5-3.4l13.8 3.4.8-3.1c.3-1.2.4-2 .4-2.6 0-.7-.2-1.4-.5-1.9s-.9-1.1-1.7-1.6c-.9-.5-2.1-1-3.7-1.4s-2.9-.6-3.8-.5c-.9.1-1.7.3-2.3.7s-1.1 1-1.5 1.7c-.3.6-.6 1.7-1 3.4l-.5 1.9z"/></g><g><path class="st0" d="M113.1 142.4v8.2H82.3c.3-3.1 1.3-6 3-8.8 1.7-2.8 5-6.4 9.9-11 4-3.7 6.4-6.2 7.3-7.5 1.2-1.8 1.8-3.6 1.8-5.4 0-2-.5-3.5-1.6-4.5-1.1-1.1-2.5-1.6-4.4-1.6-1.8 0-3.3.6-4.4 1.7-1.1 1.1-1.7 2.9-1.9 5.5l-8.8-.9c.5-4.8 2.2-8.3 4.9-10.4 2.8-2.1 6.2-3.2 10.3-3.2 4.5 0 8.1 1.2 10.7 3.7 2.6 2.4 3.9 5.5 3.9 9.1 0 2.1-.4 4-1.1 5.9-.7 1.9-1.9 3.8-3.5 5.9-1.1 1.4-3 3.3-5.8 5.8s-4.5 4.2-5.3 5.1c-.7.8-1.3 1.6-1.8 2.4h17.6zM135.9 150.5v-9.2h-18.8v-7.7l19.9-29.1h7.4v29.1h5.7v7.7h-5.7v9.2h-8.5zm0-16.9v-15.7l-10.5 15.7h10.5zM161 126.9v8.7c1.5-1.7 3.2-2.6 5.2-2.6 1 0 2 .2 2.8.6.8.4 1.5.9 1.9 1.5.4.6.7 1.3.9 2 .2.7.2 1.9.2 3.4v10h-4.5v-9c0-1.8-.1-2.9-.3-3.4-.2-.5-.5-.9-.9-1.2-.4-.3-1-.4-1.6-.4-.8 0-1.4.2-2 .5-.6.4-1 .9-1.3 1.7-.3.7-.4 1.8-.4 3.3v8.6h-4.5V127h4.5zM181 150.5h-4.5v-17.1h4.2v2.4c.7-1.1 1.4-1.9 1.9-2.3.6-.4 1.2-.5 2-.5 1 0 2 .3 3 .9l-1.4 3.9c-.8-.5-1.5-.7-2.1-.7-.6 0-1.2.2-1.6.5-.4.3-.8 1-1 1.9-.3.9-.4 2.8-.4 5.7v5.3z"/></g><path class="st0" d="M220.5 126.4c-1.8-1.5-3-3.7-3-6.3 0-3.7 2.6-6.9 6-7.8v-2.1c-4.6.9-8 5-8 9.9 0 3 1.3 5.7 3.4 7.5 1.6 1.6 2.6-.5 1.6-1.2m11.6-13.9c-1-.9-2.5.6-1.6 1.3 1.9 1.5 3 3.7 3 6.3 0 3.7-2.6 6.9-6 7.8v2.1c4.6-.9 8-5 8-9.9.1-3-1.3-5.8-3.4-7.6m-7.7 1.6l3.3-2c.5-.3.5-.8 0-1l-3.3-2c-.5-.3-.9-.1-.9.5v4c0 .5.4.7.9.5m2.3 12.1l-3.3 2c-.5.3-.5.8 0 1l3.3 2c.5.3.9.1.9-.5v-4c-.1-.6-.4-.8-.9-.5M31.1 126.4c-1.8-1.5-3-3.7-3-6.3 0-3.7 2.6-6.9 6-7.8v-2.1c-4.6.9-8 5-8 9.9 0 3 1.3 5.7 3.4 7.5 1.6 1.6 2.6-.5 1.6-1.2m11.6-13.9c-1-.9-2.5.6-1.6 1.3 1.9 1.5 3 3.7 3 6.3 0 3.7-2.6 6.9-6 7.8v2.1c4.6-.9 8-5 8-9.9.1-3-1.3-5.8-3.4-7.6m-7.7 1.6l3.3-2c.5-.3.5-.8 0-1l-3.3-2c-.5-.3-.9-.1-.9.5v4c0 .5.4.7.9.5m2.3 12.1l-3.3 2c-.5.3-.5.8 0 1l3.3 2c.5.3.9.1.9-.5v-4c-.1-.6-.5-.8-.9-.5"/></svg>