<svg id="Layer_1" xmlns="http://www.w3.org/2000/svg" viewBox="0 0 16 15.7">
  <style>
    svg{
      fill:#000000;
      transition: all 0.5s;
    }

    svg:hover {
      transform:scale(0.7);
      cursor:pointer;
    }

  </style>
  <a href="https://goo.gl/n2K6Xo"
      target="_blank">
  <path class="st0" d="M9.9 1.6h.9V5c0 .1 0 .2.1.2 0 0 .1.1.2.1s.2 0 .3-.1c.1-.1.2-.1.3-.2V1.6h.9V6h-.9v-.4c-.2.2-.3.3-.5.4-.2.1-.4.1-.5.1-.2 0-.4-.1-.5-.2-.2-.1-.3-.3-.3-.6V1.6zM4.1 0l.6 2.4h.1L5.4 0h1.1L5.3 3.5V6h-1V3.7L3 0zM8.8 1.8c-.2-.2-.5-.3-.9-.3s-.7.1-1 .3c-.2.2-.4.5-.4.8v2.3c0 .4.1.7.4.9.2.2.6.3 1 .3s.7-.1 1-.3c.2-.2.4-.5.4-.9V2.6c-.1-.3-.2-.6-.5-.8zM8.3 5c0 .1 0 .2-.1.3-.1.1-.2.1-.3.1-.1 0-.2 0-.3-.1-.1-.1-.1-.2-.1-.3V2.6c0-.1 0-.2.1-.2.1-.1.2-.1.3-.1.1 0 .2 0 .3.1.1.1.1.1.1.2V5zM12.3 10.5c-.1 0-.2 0-.3.1-.1.1-.1.2-.1.4v.4h.7V11c0-.2 0-.3-.1-.4 0 0-.1-.1-.2-.1zM9.5 10.5h-.2c-.1 0-.1.1-.2.1v2.5c.1.1.1.1.2.1h.2c.1 0 .2 0 .2-.1s.1-.1.1-.3v-2.1c0-.1 0-.2-.1-.3 0 .2-.1.1-.2.1z"/>
  <path class="st0" d="M13.1 7.5H2.9C1.3 7.5 0 8.8 0 10.4v2.3c0 1.6 1.3 2.9 2.9 2.9h10.2c1.6 0 2.9-1.3 2.9-2.9v-2.3c0-1.6-1.3-2.9-2.9-2.9zm-8 1.8h-1V14h-.9V9.3h-.9v-.8h2.8v.8zM7.7 14h-.8v-.4c-.1.2-.3.3-.5.4H6c-.2 0-.3-.1-.4-.2-.1-.1-.1-.3-.1-.5V9.9h.8V13.2s.1.1.2.1.1 0 .2-.1.2-.1.3-.2V9.9h.8V14zm3-.9c0 .3-.1.5-.2.7-.2.2-.3.2-.6.2-.2 0-.3 0-.4-.1-.1-.1-.2-.1-.3-.3v.4h-.9V8.5h.8v1.8c.2-.2.3-.3.4-.3.1-.1.2-.1.4-.1.3 0 .5.1.6.3.1.2.2.4.2.8v2.1zm2.8-1.1H12v.8c0 .2 0 .4.1.4.1.1.1.1.3.1.1 0 .2 0 .3-.1.1-.1.1-.2.1-.5v-.2h.8v.2c0 .4-.1.7-.3.9-.2.2-.5.3-.9.3s-.6-.1-.9-.3c-.2-.2-.3-.5-.3-.9V11c0-.3.1-.6.3-.9.2-.2.5-.3.9-.3s.7.1.9.3c.2.2.3.5.3.9v1z"/>
  </a>
</svg>
