<svg id="Layer_1" xmlns="http://www.w3.org/2000/svg" viewBox="0 0 487.1 117.7"><style>.st0{fill:#EF6626;} .st1{fill:#1D1D1B;}</style><path class="st0" d="M32.2 98.2l11.6-54h7.7l11.6 54h-7.7l-2.9-13.5h-9.6L40 98.2h-7.8zm11.5-19.3h7.7l-3.9-23.1-3.8 23.1zM80.9 98.7c-2.3 0-4.3-.3-6-1-1.7-.6-3.1-1.5-4.2-2.7-1.1-1.1-2-2.5-2.7-4.2-.7-1.7-1.2-3.5-1.5-5.4-.3-1.9-.4-4.1-.4-6.5V63.5c0-2.4.1-4.6.4-6.5.3-1.9.8-3.7 1.5-5.4.7-1.7 1.6-3.1 2.7-4.2s2.5-2 4.2-2.6c1.7-.6 3.7-1 6-1 2.5 0 4.7.4 6.5 1.1 1.8.7 3.3 1.8 4.4 3.3 1.1 1.4 1.9 3.1 2.5 5 .6 1.9.9 4.1 1 6.7v1.8h-7.7V60c0-1.1-.1-2-.1-2.7-.1-.7-.2-1.5-.3-2.3-.2-.8-.4-1.5-.7-2-.3-.5-.7-1-1.2-1.5s-1.1-.8-1.8-1c-.7-.2-1.6-.3-2.5-.3-1.2 0-2.3.2-3.2.6-.9.4-1.6.9-2.1 1.5s-.9 1.5-1.2 2.5c-.3 1.1-.4 2.1-.5 3.1-.1 1-.1 2.3-.1 3.8V81c0 1.3.1 2.5.2 3.5s.3 2.1.6 3.1.7 1.9 1.2 2.6c.5.7 1.2 1.3 2 1.7.9.4 1.8.6 3 .6 1.1 0 2.1-.2 2.9-.7.8-.4 1.5-1 1.9-1.7.5-.7.8-1.6 1.1-2.6.3-1.1.4-2.1.5-3.1.1-1 .1-2.2.1-3.5V79h7.7v1.9c0 2.8-.2 5.2-.7 7.3-.5 2.1-1.3 4-2.4 5.6-1.1 1.6-2.6 2.8-4.5 3.7-1.7.8-3.9 1.2-6.6 1.2zM100.4 98.2v-54h7.7v23.1l11.6-23.1h9.6l-11.6 21.2 13.5 32.8h-9.6L112 73.1l-3.9 7.7v17.4h-7.7zM148.2 98.7c-4.9 0-8.6-1.4-11.1-4.3-2.6-2.9-4-6.7-4.3-11.7l7.7-1.9c.4 7.7 2.9 11.6 7.7 11.6 3.9 0 5.8-1.9 5.8-5.8 0-1.1-.2-2.2-.5-3.2s-.8-1.9-1.4-2.7c-.6-.8-1.2-1.5-1.7-2s-1.2-1.1-2.1-1.8l-9.6-7.7c-1.8-1.4-3.2-3.1-4.2-5.3-1.1-2.1-1.6-4.6-1.6-7.3 0-4 1.2-7.1 3.7-9.5 2.5-2.3 5.7-3.5 9.8-3.5 4.4 0 7.9 1.1 10.4 3.2 2.6 2.1 4.2 5.2 4.8 9.1.1.4.1 1 .2 1.8l-7.7 1.9c0-.3-.1-.9-.2-1.5-.3-2.5-1.1-4.4-2.3-5.9-1.2-1.5-2.9-2.2-5.3-2.2-1.8 0-3.3.5-4.3 1.6-1 1-1.5 2.5-1.5 4.3 0 3 1.3 5.6 3.9 7.6l9.6 7.7c5.1 4.2 7.7 9.1 7.7 14.9 0 4-1.2 7.1-3.7 9.3-2.4 2.2-5.7 3.3-9.8 3.3zM167.3 98.2v-54h7.7v23.1h13.5V44.2h7.7v54h-7.7V73.1H175v25.1h-7.7zM19.5 44.2H2.9c-1.6 0-2.9 1.3-2.9 2.9C0 48.7 1.3 50 2.9 50H15.7c2 0 3.5.2 4.7.4 1.2.3 2.2.8 2.9 1.6.8.8 1.3 1.7 1.6 2.9.3 1.2.4 2.8.4 4.7 0 1.6-.2 2.9-.6 3.9-.4 1-1 1.8-1.8 2.4-.9.6-1.8.9-3 1.1-1.1.2-2.5.3-4.3.3h-1.9v-6.7c0-2.1-1.7-3.9-3.9-3.9-2.1 0-3.8 1.7-3.8 3.9V67.2H2.9c-1.6 0-2.9 1.3-2.9 2.9C0 71.7 1.3 73 2.9 73H6v25h7.7V73.1h5.8c4.4 0 7.7-1.1 10-3.4s3.5-5.6 3.5-10c0-10.3-4.5-15.5-13.5-15.5z"/><path class="st1" d="M355.3 98.3v-54h7.7v54h-7.7zm-34.5 0v-54h12c5.6 0 9.6 1.2 12 3.5 2.3 2.3 3.5 6.3 3.5 12V81c0 5.9-1.2 10.3-3.5 13.1-2.4 2.8-6.3 4.2-12 4.2h-12zm7.7-5.8h4.2c1.3 0 2.4-.1 3.3-.3.9-.2 1.6-.7 2.2-1.3.6-.6 1-1.2 1.3-1.8.3-.5.5-1.4.7-2.6.1-1.2.2-2.1.2-2.9v-3.5-18.5-2.3c0-.6 0-1.3-.1-2.1s-.1-1.4-.2-1.9-.2-1-.4-1.6c-.2-.6-.4-1-.7-1.3l-1-1c-.4-.4-.8-.6-1.4-.8-.5-.2-1.1-.3-1.8-.4-.7-.1-1.4-.2-2.3-.2h-4.1v42.5zM371.3 98.3v-54h9.6c5.7 0 10.1 1.1 13 3.3 2.9 2.2 4.4 5.9 4.4 11.1 0 3.2-.6 5.9-1.7 8.1-1.1 2.2-2.8 3.7-5 4.5l8.7 27h-7.7l-7.8-25.1H379v25.1h-7.7zm7.7-30.9h1.9c3.2 0 5.6-.7 7.2-2 1.6-1.4 2.4-3.6 2.4-6.7s-.8-5.3-2.4-6.6c-1.6-1.4-4-2-7.2-2H379v17.3zM404.7 98.3v-54h21.2V50h-13.5v17.4h9.6v5.8h-9.6v19.3h13.5v5.8h-21.2zM444.5 98.8c-2.3 0-4.3-.3-6-1-1.7-.6-3.1-1.5-4.2-2.7-1.1-1.1-2-2.6-2.7-4.2-.7-1.7-1.2-3.5-1.5-5.4-.3-1.9-.4-4.1-.4-6.5V63.5c0-2.4.1-4.6.4-6.5.3-1.9.8-3.7 1.5-5.4.7-1.7 1.6-3.1 2.7-4.2s2.5-2 4.2-2.7c1.7-.6 3.7-1 6-1 2.5 0 4.7.4 6.5 1.1 1.8.7 3.3 1.8 4.4 3.3 1.1 1.4 1.9 3.1 2.5 5 .6 1.9.9 4.1 1 6.7v1.8h-7.7v-1.7c0-1.1-.1-2-.1-2.7-.1-.8-.2-1.5-.3-2.3-.2-.8-.4-1.5-.7-2-.3-.5-.7-1-1.2-1.5s-1.1-.8-1.8-1c-.7-.2-1.6-.3-2.5-.3-1.2 0-2.3.2-3.2.6-.9.4-1.6.9-2.1 1.6-.5.6-.9 1.5-1.2 2.5-.3 1.1-.4 2.1-.5 3.1-.1 1-.1 2.3-.1 3.8V81c0 1.3.1 2.5.2 3.5s.3 2.1.6 3.1.7 1.9 1.3 2.6c.5.7 1.2 1.3 2.1 1.7.9.4 1.9.7 3 .7s2.1-.2 3-.7c.8-.4 1.5-1 1.9-1.7.5-.7.8-1.6 1.1-2.6.3-1.1.4-2.1.5-3.1.1-1 .1-2.2.1-3.5v-2h7.7v1.9c0 2.8-.2 5.2-.7 7.4-.5 2.1-1.3 4-2.4 5.6-1.1 1.6-2.6 2.8-4.5 3.7-2 .8-4.2 1.2-6.9 1.2zM469.8 98.3V51.1h-9.6v-6.9h27v6.9h-9.6v47.1h-7.8z"/><g><path class="st0" d="M298.9 98.4c-4.8 0-8.4-1.4-10.9-4.2-2.5-2.8-3.9-6.6-4.2-11.5l7.6-1.9c.4 7.6 2.9 11.4 7.5 11.4 3.8 0 5.7-1.9 5.7-5.7 0-1.1-.1-2.2-.5-3.1-.3-.9-.8-1.8-1.4-2.6-.6-.8-1.2-1.4-1.7-1.9s-1.2-1.1-2.1-1.8l-9.4-7.6c-1.7-1.4-3.1-3.1-4.1-5.2-1-2.1-1.5-4.5-1.5-7.2 0-3.9 1.2-7 3.7-9.3 2.4-2.3 5.6-3.4 9.6-3.4 4.3 0 7.7 1.1 10.2 3.2 2.5 2.1 4.1 5.1 4.7 8.9.1.4.1 1 .2 1.7l-7.6 1.9c0-.3-.1-.8-.1-1.5-.3-2.4-1.1-4.3-2.2-5.8-1.2-1.4-2.9-2.2-5.2-2.2-1.8 0-3.2.5-4.2 1.5s-1.5 2.4-1.5 4.2c0 3 1.2 5.5 3.8 7.5l9.4 7.6c5 4.1 7.6 9 7.5 14.6 0 3.9-1.2 6.9-3.6 9.1-2.4 2.2-5.6 3.3-9.7 3.3z"/></g><path class="st0" d="M263.3 98.4V51.3h-9.6v-6.9h27v6.9H271v47.1h-7.7z"/><g><path class="st1" d="M174.7 30.8c0 1.8-1.5 3.3-3.3 3.3-1.8 0-3.3-1.5-3.3-3.3 0-1.8 1.5-3.3 3.3-3.3 1.8 0 3.3 1.5 3.3 3.3zM217.9 155zM262.8 22.4c0-.2-1.9-16.6-12.2-16.6h-46.1c-10.6 0-12.7 16.6-12.7 16.7l-5.1-.2c.6-7.6 5-22.3 17.8-22.3h46.1c15.5 0 17.7 21 17.8 21.9l-5.6.5z"/><path class="st1" d="M192.6 16.7h-21.2c-10.7 0-19.4 8.7-19.4 19.4v2.1h5.8v-2.1c0-7.5 6.1-13.6 13.6-13.6h20.2l1-5.8zM285.4 16.7h-23.7l1.2 5.8h22.5c7.5 0 13.6 6.1 13.6 13.6v2.1h5.8v-2.1c-.1-10.7-8.8-19.4-19.4-19.4zM299.8 104.3v7.3c0 .6-.5 1-1 1H158.3c-.6 0-1-.5-1-1v-7.3h-5v7.3c0 3.3 2.7 6.1 6.1 6.1h140.5c3.4 0 6.1-2.7 6.1-6.1v-7.3h-5.2zM181.1 13.2c0 1.1-.9 1.9-1.9 1.9h-7c-1.1 0-1.9-.9-1.9-1.9 0-1.1.9-1.9 1.9-1.9h7c1 0 1.9.8 1.9 1.9z"/></g><path class="st1" d="M207.3 41.2c3.9-7.1 11.4-11.9 20.1-11.9 8.7 0 16.2 4.8 20.1 11.9h5.4c-1.4-3.2-3.4-6.1-5.9-8.6-2.5-2.5-5.5-4.5-8.8-6-3.4-1.4-7.1-2.2-10.8-2.2-3.7 0-7.4.7-10.8 2.2-3.3 1.4-6.3 3.4-8.8 6-2.5 2.5-4.5 5.4-5.9 8.6h5.4z"/><g><path class="st1" d="M227.3 45.2c14.1 0 25.4 11.4 25.4 25.4 0 14-11.4 25.4-25.4 25.4s-25.4-11.4-25.4-25.4c0-14 11.4-25.4 25.4-25.4m0-2.3c-3.7 0-7.4.7-10.8 2.2-3.3 1.4-6.3 3.4-8.8 6-2.6 2.5-4.6 5.5-6 8.8-1.4 3.4-2.2 7.1-2.2 10.8 0 3.7.7 7.4 2.2 10.8 1.4 3.3 3.4 6.3 6 8.8 2.5 2.5 5.5 4.5 8.8 6 3.4 1.4 7.1 2.2 10.8 2.2 3.7 0 7.4-.7 10.8-2.2 3.3-1.4 6.3-3.4 8.8-6 2.5-2.5 4.5-5.5 5.9-8.8 1.4-3.4 2.2-7.1 2.2-10.8 0-3.7-.7-7.4-2.2-10.8-1.4-3.3-3.4-6.3-5.9-8.8-2.5-2.5-5.5-4.5-8.8-6-3.4-1.5-7-2.2-10.8-2.2z"/><path class="st1" d="M206.1 63.2h23.6l-8.2-14.1c-7.1 1.9-13 7.2-15.4 14.1zM227.1 48.4c-1.4 0-2.8.1-4.1.4l12 20.6 8.2-14.1c-4.2-4.4-10.1-6.9-16.1-6.9zM244.2 56.4l-12 20.6h16.2c.6-2 .9-4.2.9-6.3 0-5.3-1.8-10.3-5.1-14.3zM219.1 72.3l-8 13.9c4.2 4.3 9.9 6.7 15.9 6.7 1.3 0 2.6-.1 3.9-.3l-11.8-20.3zM210.1 85.1l11.7-20.4h-16.2c-.5 1.9-.8 4-.8 6 0 5.3 1.9 10.4 5.3 14.4zM248 78.4h-23.6l8.1 13.9c7-1.8 12.9-7 15.5-13.9z"/></g></svg>